<mxfile host="app.diagrams.net" agent="Mozilla/5.0 (Windows NT 10.0; Win64; x64) AppleWebKit/537.36 (KHTML, like Gecko) Chrome/134.0.0.0 Safari/537.36" version="26.1.0">
  <diagram name="Page-1" id="aQKSvyS08LFyYSBe-N44">
    <mxGraphModel dx="2625" dy="2220" grid="1" gridSize="10" guides="1" tooltips="1" connect="1" arrows="1" fold="1" page="1" pageScale="1" pageWidth="1169" pageHeight="827" math="0" shadow="0">
      <root>
        <mxCell id="0" />
        <mxCell id="1" parent="0" />
        <mxCell id="0S-3l-w-nzVZIsKJXBlZ-131" value="" style="rounded=0;whiteSpace=wrap;html=1;fillColor=none;strokeColor=#990099;dashed=1;dashPattern=8 8;strokeWidth=2;" parent="1" vertex="1">
          <mxGeometry x="1050" y="-200" width="423" height="520" as="geometry" />
        </mxCell>
        <mxCell id="zPqDqTLsyCB9AAuiYfrW-42" style="edgeStyle=orthogonalEdgeStyle;rounded=0;orthogonalLoop=1;jettySize=auto;html=1;exitX=1;exitY=0.25;exitDx=0;exitDy=0;entryX=0.711;entryY=-0.022;entryDx=0;entryDy=0;entryPerimeter=0;strokeWidth=3;strokeColor=#009999;" parent="1" source="5N_nwnFfnxtBeg_xK4KU-8" target="zPqDqTLsyCB9AAuiYfrW-1" edge="1">
          <mxGeometry relative="1" as="geometry">
            <Array as="points">
              <mxPoint x="1040" y="-550" />
              <mxPoint x="1445" y="-550" />
            </Array>
          </mxGeometry>
        </mxCell>
        <mxCell id="zPqDqTLsyCB9AAuiYfrW-43" value="&lt;b&gt;ResultSrcE0&lt;/b&gt;" style="edgeLabel;html=1;align=center;verticalAlign=middle;resizable=0;points=[];" parent="zPqDqTLsyCB9AAuiYfrW-42" vertex="1" connectable="0">
          <mxGeometry x="0.9306" y="2" relative="1" as="geometry">
            <mxPoint as="offset" />
          </mxGeometry>
        </mxCell>
        <mxCell id="zPqDqTLsyCB9AAuiYfrW-44" value="&lt;b&gt;ResultSrcE0&lt;/b&gt;" style="edgeLabel;html=1;align=center;verticalAlign=middle;resizable=0;points=[];" parent="zPqDqTLsyCB9AAuiYfrW-42" vertex="1" connectable="0">
          <mxGeometry x="-0.3252" y="2" relative="1" as="geometry">
            <mxPoint y="12" as="offset" />
          </mxGeometry>
        </mxCell>
        <mxCell id="zPqDqTLsyCB9AAuiYfrW-11" value="&lt;b&gt;&amp;nbsp; &amp;nbsp; &amp;nbsp; MUX&lt;/b&gt;" style="shape=trapezoid;perimeter=trapezoidPerimeter;whiteSpace=wrap;html=1;fixedSize=1;direction=south;sketch=1;curveFitting=1;jiggle=2;fillColor=#B3B3B3;fontColor=#333333;strokeColor=#666666;strokeWidth=2;" parent="1" vertex="1">
          <mxGeometry x="1140" y="-60" width="50" height="100" as="geometry" />
        </mxCell>
        <mxCell id="zPqDqTLsyCB9AAuiYfrW-7" value="&lt;b&gt;&amp;nbsp; &amp;nbsp; &amp;nbsp; MUX&lt;/b&gt;" style="shape=trapezoid;perimeter=trapezoidPerimeter;whiteSpace=wrap;html=1;fixedSize=1;direction=south;sketch=1;curveFitting=1;jiggle=2;fillColor=#B3B3B3;fontColor=#333333;strokeColor=#666666;strokeWidth=2;" parent="1" vertex="1">
          <mxGeometry x="1140" y="-190" width="50" height="100" as="geometry" />
        </mxCell>
        <mxCell id="zPqDqTLsyCB9AAuiYfrW-20" style="edgeStyle=orthogonalEdgeStyle;rounded=0;orthogonalLoop=1;jettySize=auto;html=1;exitX=1;exitY=0.25;exitDx=0;exitDy=0;entryX=0.75;entryY=1;entryDx=0;entryDy=0;strokeWidth=3;strokeColor=#00CCCC;" parent="1" source="0S-3l-w-nzVZIsKJXBlZ-123" target="zPqDqTLsyCB9AAuiYfrW-7" edge="1">
          <mxGeometry relative="1" as="geometry">
            <Array as="points">
              <mxPoint x="1620" y="-53" />
              <mxPoint x="1620" y="340" />
              <mxPoint x="1110" y="340" />
              <mxPoint x="1110" y="-115" />
            </Array>
          </mxGeometry>
        </mxCell>
        <mxCell id="zPqDqTLsyCB9AAuiYfrW-23" value="&lt;b&gt;10&lt;/b&gt;" style="edgeLabel;html=1;align=center;verticalAlign=middle;resizable=0;points=[];" parent="zPqDqTLsyCB9AAuiYfrW-20" vertex="1" connectable="0">
          <mxGeometry x="0.9753" y="1" relative="1" as="geometry">
            <mxPoint x="24" as="offset" />
          </mxGeometry>
        </mxCell>
        <mxCell id="zPqDqTLsyCB9AAuiYfrW-21" style="edgeStyle=orthogonalEdgeStyle;rounded=0;orthogonalLoop=1;jettySize=auto;html=1;exitX=1;exitY=0.25;exitDx=0;exitDy=0;entryX=0.75;entryY=1;entryDx=0;entryDy=0;strokeWidth=3;strokeColor=#00CCCC;" parent="1" source="0S-3l-w-nzVZIsKJXBlZ-123" target="zPqDqTLsyCB9AAuiYfrW-11" edge="1">
          <mxGeometry relative="1" as="geometry">
            <Array as="points">
              <mxPoint x="1620" y="-53" />
              <mxPoint x="1620" y="340" />
              <mxPoint x="1110" y="340" />
              <mxPoint x="1110" y="15" />
            </Array>
          </mxGeometry>
        </mxCell>
        <mxCell id="zPqDqTLsyCB9AAuiYfrW-22" value="&lt;b&gt;10&lt;/b&gt;" style="edgeLabel;html=1;align=center;verticalAlign=middle;resizable=0;points=[];" parent="zPqDqTLsyCB9AAuiYfrW-21" vertex="1" connectable="0">
          <mxGeometry x="0.9683" relative="1" as="geometry">
            <mxPoint x="28" y="-2" as="offset" />
          </mxGeometry>
        </mxCell>
        <mxCell id="zPqDqTLsyCB9AAuiYfrW-1" value="&lt;b&gt;&lt;font style=&quot;font-size: 16px; color: rgb(0, 0, 0);&quot;&gt;Hazard Unit&lt;/font&gt;&lt;/b&gt;" style="rounded=1;whiteSpace=wrap;html=1;fillColor=#CCFFE6;strokeColor=#00CC66;sketch=1;curveFitting=1;jiggle=2;strokeWidth=4;fontColor=#ffffff;" parent="1" vertex="1">
          <mxGeometry x="250" y="440" width="1680" height="90" as="geometry" />
        </mxCell>
        <mxCell id="0S-3l-w-nzVZIsKJXBlZ-186" value="" style="rounded=0;whiteSpace=wrap;html=1;fillColor=none;strokeColor=#990099;dashed=1;dashPattern=8 8;strokeWidth=2;" parent="1" vertex="1">
          <mxGeometry x="1943" y="-200" width="260" height="520" as="geometry" />
        </mxCell>
        <mxCell id="0S-3l-w-nzVZIsKJXBlZ-86" value="" style="rounded=0;whiteSpace=wrap;html=1;fillColor=none;strokeColor=#990099;dashed=1;dashPattern=8 8;strokeWidth=2;" parent="1" vertex="1">
          <mxGeometry x="620" y="-200" width="360" height="520" as="geometry" />
        </mxCell>
        <mxCell id="0S-3l-w-nzVZIsKJXBlZ-99" value="&lt;b&gt;MUX&lt;/b&gt;" style="shape=trapezoid;perimeter=trapezoidPerimeter;whiteSpace=wrap;html=1;fixedSize=1;direction=south;sketch=1;curveFitting=1;jiggle=2;fillColor=#B3B3B3;fontColor=#333333;strokeColor=#666666;strokeWidth=2;" parent="1" vertex="1">
          <mxGeometry x="1223" y="-60" width="40" height="100" as="geometry" />
        </mxCell>
        <mxCell id="zPqDqTLsyCB9AAuiYfrW-12" style="edgeStyle=orthogonalEdgeStyle;rounded=0;orthogonalLoop=1;jettySize=auto;html=1;exitX=0.5;exitY=0;exitDx=0;exitDy=0;entryX=0.25;entryY=1;entryDx=0;entryDy=0;strokeWidth=3;" parent="1" source="zPqDqTLsyCB9AAuiYfrW-11" target="0S-3l-w-nzVZIsKJXBlZ-99" edge="1">
          <mxGeometry relative="1" as="geometry">
            <Array as="points">
              <mxPoint x="1200" y="-10" />
              <mxPoint x="1200" y="-35" />
            </Array>
          </mxGeometry>
        </mxCell>
        <mxCell id="zPqDqTLsyCB9AAuiYfrW-14" value="&lt;b&gt;0&lt;/b&gt;" style="edgeLabel;html=1;align=center;verticalAlign=middle;resizable=0;points=[];" parent="zPqDqTLsyCB9AAuiYfrW-12" vertex="1" connectable="0">
          <mxGeometry x="0.3341" relative="1" as="geometry">
            <mxPoint x="26" as="offset" />
          </mxGeometry>
        </mxCell>
        <mxCell id="zPqDqTLsyCB9AAuiYfrW-16" style="edgeStyle=orthogonalEdgeStyle;rounded=0;orthogonalLoop=1;jettySize=auto;html=1;exitX=0.5;exitY=0;exitDx=0;exitDy=0;entryX=0.5;entryY=1;entryDx=0;entryDy=0;strokeWidth=3;strokeColor=#00FFFF;" parent="1" source="0S-3l-w-nzVZIsKJXBlZ-168" target="zPqDqTLsyCB9AAuiYfrW-7" edge="1">
          <mxGeometry relative="1" as="geometry">
            <Array as="points">
              <mxPoint x="2190" y="-20" />
              <mxPoint x="2190" y="350" />
              <mxPoint x="1100" y="350" />
              <mxPoint x="1100" y="-140" />
            </Array>
          </mxGeometry>
        </mxCell>
        <mxCell id="zPqDqTLsyCB9AAuiYfrW-18" value="&lt;b&gt;01&lt;/b&gt;" style="edgeLabel;html=1;align=center;verticalAlign=middle;resizable=0;points=[];" parent="zPqDqTLsyCB9AAuiYfrW-16" vertex="1" connectable="0">
          <mxGeometry x="0.9741" y="-1" relative="1" as="geometry">
            <mxPoint x="34" y="-1" as="offset" />
          </mxGeometry>
        </mxCell>
        <mxCell id="zPqDqTLsyCB9AAuiYfrW-17" style="edgeStyle=orthogonalEdgeStyle;rounded=0;orthogonalLoop=1;jettySize=auto;html=1;exitX=0.5;exitY=0;exitDx=0;exitDy=0;entryX=0.5;entryY=1;entryDx=0;entryDy=0;strokeWidth=3;strokeColor=#00FFFF;" parent="1" source="0S-3l-w-nzVZIsKJXBlZ-168" target="zPqDqTLsyCB9AAuiYfrW-11" edge="1">
          <mxGeometry relative="1" as="geometry">
            <Array as="points">
              <mxPoint x="2190" y="-20" />
              <mxPoint x="2190" y="350" />
              <mxPoint x="1100" y="350" />
              <mxPoint x="1100" y="-10" />
            </Array>
          </mxGeometry>
        </mxCell>
        <mxCell id="zPqDqTLsyCB9AAuiYfrW-19" value="&lt;b&gt;01&lt;/b&gt;" style="edgeLabel;html=1;align=center;verticalAlign=middle;resizable=0;points=[];" parent="zPqDqTLsyCB9AAuiYfrW-17" vertex="1" connectable="0">
          <mxGeometry x="0.9704" y="1" relative="1" as="geometry">
            <mxPoint x="38" y="1" as="offset" />
          </mxGeometry>
        </mxCell>
        <mxCell id="0S-3l-w-nzVZIsKJXBlZ-184" value="" style="rounded=0;whiteSpace=wrap;html=1;fillColor=none;strokeColor=#990099;dashed=1;dashPattern=8 8;strokeWidth=2;" parent="1" vertex="1">
          <mxGeometry x="1543" y="-200" width="330" height="520" as="geometry" />
        </mxCell>
        <mxCell id="zPqDqTLsyCB9AAuiYfrW-5" style="edgeStyle=orthogonalEdgeStyle;rounded=0;orthogonalLoop=1;jettySize=auto;html=1;exitX=1;exitY=0.25;exitDx=0;exitDy=0;strokeWidth=3;strokeColor=#00CCCC;" parent="1" source="0S-3l-w-nzVZIsKJXBlZ-123" edge="1">
          <mxGeometry relative="1" as="geometry">
            <mxPoint x="1620" y="440" as="targetPoint" />
            <Array as="points">
              <mxPoint x="1620" y="-52" />
            </Array>
          </mxGeometry>
        </mxCell>
        <mxCell id="zPqDqTLsyCB9AAuiYfrW-6" value="&lt;b&gt;ALUResultM&lt;/b&gt;" style="edgeLabel;html=1;align=center;verticalAlign=middle;resizable=0;points=[];" parent="zPqDqTLsyCB9AAuiYfrW-5" vertex="1" connectable="0">
          <mxGeometry x="0.8312" relative="1" as="geometry">
            <mxPoint y="17" as="offset" />
          </mxGeometry>
        </mxCell>
        <mxCell id="zPqDqTLsyCB9AAuiYfrW-3" style="edgeStyle=orthogonalEdgeStyle;rounded=0;orthogonalLoop=1;jettySize=auto;html=1;exitX=0.5;exitY=0;exitDx=0;exitDy=0;entryX=1;entryY=0.5;entryDx=0;entryDy=0;strokeWidth=3;strokeColor=#00FFFF;" parent="1" source="0S-3l-w-nzVZIsKJXBlZ-168" target="zPqDqTLsyCB9AAuiYfrW-1" edge="1">
          <mxGeometry relative="1" as="geometry">
            <Array as="points">
              <mxPoint x="2190" y="-20" />
              <mxPoint x="2190" y="485" />
            </Array>
          </mxGeometry>
        </mxCell>
        <mxCell id="zPqDqTLsyCB9AAuiYfrW-4" value="&lt;b&gt;ResultW&lt;/b&gt;" style="edgeLabel;html=1;align=center;verticalAlign=middle;resizable=0;points=[];" parent="zPqDqTLsyCB9AAuiYfrW-3" vertex="1" connectable="0">
          <mxGeometry x="0.8633" y="-2" relative="1" as="geometry">
            <mxPoint x="15" y="2" as="offset" />
          </mxGeometry>
        </mxCell>
        <mxCell id="5N_nwnFfnxtBeg_xK4KU-54" style="edgeStyle=orthogonalEdgeStyle;rounded=0;orthogonalLoop=1;jettySize=auto;html=1;exitX=1;exitY=0.5;exitDx=0;exitDy=0;entryX=0;entryY=0.25;entryDx=0;entryDy=0;strokeWidth=3;strokeColor=#3399FF;" parent="1" source="5N_nwnFfnxtBeg_xK4KU-8" target="5N_nwnFfnxtBeg_xK4KU-53" edge="1">
          <mxGeometry relative="1" as="geometry">
            <Array as="points">
              <mxPoint x="1040" y="-460" />
              <mxPoint x="1200" y="-460" />
              <mxPoint x="1200" y="-703" />
            </Array>
          </mxGeometry>
        </mxCell>
        <mxCell id="5N_nwnFfnxtBeg_xK4KU-55" value="&lt;b&gt;BranchE&lt;/b&gt;" style="edgeLabel;html=1;align=center;verticalAlign=middle;resizable=0;points=[];" parent="5N_nwnFfnxtBeg_xK4KU-54" vertex="1" connectable="0">
          <mxGeometry x="-0.6061" relative="1" as="geometry">
            <mxPoint x="-25" as="offset" />
          </mxGeometry>
        </mxCell>
        <mxCell id="5N_nwnFfnxtBeg_xK4KU-50" style="edgeStyle=orthogonalEdgeStyle;rounded=0;orthogonalLoop=1;jettySize=auto;html=1;exitX=1;exitY=0.25;exitDx=0;exitDy=0;entryX=-0.045;entryY=0.07;entryDx=0;entryDy=0;entryPerimeter=0;strokeWidth=3;strokeColor=#0000FF;" parent="1" source="5N_nwnFfnxtBeg_xK4KU-32" target="5N_nwnFfnxtBeg_xK4KU-37" edge="1">
          <mxGeometry relative="1" as="geometry">
            <Array as="points">
              <mxPoint x="1533" y="-578" />
            </Array>
          </mxGeometry>
        </mxCell>
        <mxCell id="5N_nwnFfnxtBeg_xK4KU-51" value="&lt;b&gt;RegWriteM&lt;/b&gt;" style="edgeLabel;html=1;align=center;verticalAlign=middle;resizable=0;points=[];" parent="5N_nwnFfnxtBeg_xK4KU-50" vertex="1" connectable="0">
          <mxGeometry x="-0.3101" y="-1" relative="1" as="geometry">
            <mxPoint x="34" as="offset" />
          </mxGeometry>
        </mxCell>
        <mxCell id="5N_nwnFfnxtBeg_xK4KU-48" style="edgeStyle=orthogonalEdgeStyle;rounded=0;orthogonalLoop=1;jettySize=auto;html=1;exitX=1;exitY=0.25;exitDx=0;exitDy=0;entryX=0.052;entryY=0.155;entryDx=0;entryDy=0;entryPerimeter=0;strokeWidth=3;strokeColor=#0000FF;" parent="1" source="5N_nwnFfnxtBeg_xK4KU-32" target="5N_nwnFfnxtBeg_xK4KU-37" edge="1">
          <mxGeometry relative="1" as="geometry">
            <Array as="points">
              <mxPoint x="1533" y="-550" />
            </Array>
          </mxGeometry>
        </mxCell>
        <mxCell id="5N_nwnFfnxtBeg_xK4KU-49" value="&lt;b&gt;ResultSrcM&lt;/b&gt;" style="edgeLabel;html=1;align=center;verticalAlign=middle;resizable=0;points=[];" parent="5N_nwnFfnxtBeg_xK4KU-48" vertex="1" connectable="0">
          <mxGeometry x="-0.2379" y="2" relative="1" as="geometry">
            <mxPoint as="offset" />
          </mxGeometry>
        </mxCell>
        <mxCell id="0S-3l-w-nzVZIsKJXBlZ-147" style="edgeStyle=orthogonalEdgeStyle;rounded=0;orthogonalLoop=1;jettySize=auto;html=1;exitX=1;exitY=0.25;exitDx=0;exitDy=0;entryX=0.01;entryY=0.57;entryDx=0;entryDy=0;entryPerimeter=0;strokeWidth=3;" parent="1" source="0S-3l-w-nzVZIsKJXBlZ-77" target="0S-3l-w-nzVZIsKJXBlZ-123" edge="1">
          <mxGeometry relative="1" as="geometry">
            <Array as="points">
              <mxPoint x="1040" y="-35" />
              <mxPoint x="1060" y="-35" />
              <mxPoint x="1060" y="60" />
            </Array>
            <mxPoint x="1103" y="-52.5" as="sourcePoint" />
          </mxGeometry>
        </mxCell>
        <mxCell id="0S-3l-w-nzVZIsKJXBlZ-148" value="&lt;b&gt;WriteDateE&lt;/b&gt;" style="edgeLabel;html=1;align=center;verticalAlign=middle;resizable=0;points=[];" parent="0S-3l-w-nzVZIsKJXBlZ-147" vertex="1" connectable="0">
          <mxGeometry x="0.7697" y="-2" relative="1" as="geometry">
            <mxPoint y="-1" as="offset" />
          </mxGeometry>
        </mxCell>
        <mxCell id="0S-3l-w-nzVZIsKJXBlZ-193" style="edgeStyle=orthogonalEdgeStyle;rounded=0;orthogonalLoop=1;jettySize=auto;html=1;exitX=1.054;exitY=0.401;exitDx=0;exitDy=0;entryX=-0.024;entryY=0.798;entryDx=0;entryDy=0;entryPerimeter=0;exitPerimeter=0;strokeWidth=3;" parent="1" source="0S-3l-w-nzVZIsKJXBlZ-24" target="0S-3l-w-nzVZIsKJXBlZ-77" edge="1">
          <mxGeometry relative="1" as="geometry">
            <Array as="points">
              <mxPoint x="610" />
              <mxPoint x="610" y="-70" />
              <mxPoint x="680" y="-70" />
              <mxPoint x="680" y="170" />
              <mxPoint x="950" y="170" />
              <mxPoint x="950" y="139" />
            </Array>
          </mxGeometry>
        </mxCell>
        <mxCell id="0S-3l-w-nzVZIsKJXBlZ-194" value="&lt;b&gt;RdD&lt;/b&gt;" style="edgeLabel;html=1;align=center;verticalAlign=middle;resizable=0;points=[];" parent="0S-3l-w-nzVZIsKJXBlZ-193" vertex="1" connectable="0">
          <mxGeometry x="0.1255" y="-2" relative="1" as="geometry">
            <mxPoint x="209" y="-2" as="offset" />
          </mxGeometry>
        </mxCell>
        <mxCell id="0S-3l-w-nzVZIsKJXBlZ-198" style="edgeStyle=orthogonalEdgeStyle;rounded=0;orthogonalLoop=1;jettySize=auto;html=1;exitX=1;exitY=1;exitDx=0;exitDy=0;strokeWidth=3;entryX=-0.015;entryY=0.945;entryDx=0;entryDy=0;entryPerimeter=0;" parent="1" source="0S-3l-w-nzVZIsKJXBlZ-123" target="0S-3l-w-nzVZIsKJXBlZ-154" edge="1">
          <mxGeometry relative="1" as="geometry">
            <Array as="points">
              <mxPoint x="1533" y="191" />
            </Array>
            <mxPoint x="1880" y="190" as="targetPoint" />
          </mxGeometry>
        </mxCell>
        <mxCell id="0S-3l-w-nzVZIsKJXBlZ-199" value="&lt;b&gt;RdM&lt;/b&gt;" style="edgeLabel;html=1;align=center;verticalAlign=middle;resizable=0;points=[];" parent="0S-3l-w-nzVZIsKJXBlZ-198" vertex="1" connectable="0">
          <mxGeometry x="-0.6553" y="-1" relative="1" as="geometry">
            <mxPoint x="-16" y="-2" as="offset" />
          </mxGeometry>
        </mxCell>
        <mxCell id="0S-3l-w-nzVZIsKJXBlZ-87" style="edgeStyle=orthogonalEdgeStyle;rounded=0;orthogonalLoop=1;jettySize=auto;html=1;exitX=0;exitY=0.25;exitDx=0;exitDy=0;strokeWidth=3;strokeColor=#0000FF;endArrow=none;startFill=1;startArrow=classic;entryX=1.009;entryY=0.82;entryDx=0;entryDy=0;entryPerimeter=0;" parent="1" source="0S-3l-w-nzVZIsKJXBlZ-56" target="5N_nwnFfnxtBeg_xK4KU-1" edge="1">
          <mxGeometry relative="1" as="geometry">
            <mxPoint x="880" y="-340" as="targetPoint" />
            <Array as="points">
              <mxPoint x="710" y="95" />
              <mxPoint x="710" y="70" />
              <mxPoint x="970" y="70" />
              <mxPoint x="970" y="-339" />
            </Array>
          </mxGeometry>
        </mxCell>
        <mxCell id="0S-3l-w-nzVZIsKJXBlZ-88" value="&lt;b&gt;ImmSrcD&lt;/b&gt;" style="edgeLabel;html=1;align=center;verticalAlign=middle;resizable=0;points=[];" parent="0S-3l-w-nzVZIsKJXBlZ-87" vertex="1" connectable="0">
          <mxGeometry x="-0.8417" relative="1" as="geometry">
            <mxPoint x="30" y="-15" as="offset" />
          </mxGeometry>
        </mxCell>
        <mxCell id="5N_nwnFfnxtBeg_xK4KU-27" value="&lt;b&gt;ImmSrcD&lt;/b&gt;" style="edgeLabel;html=1;align=center;verticalAlign=middle;resizable=0;points=[];" parent="0S-3l-w-nzVZIsKJXBlZ-87" vertex="1" connectable="0">
          <mxGeometry x="0.816" y="-1" relative="1" as="geometry">
            <mxPoint x="-21" as="offset" />
          </mxGeometry>
        </mxCell>
        <mxCell id="0S-3l-w-nzVZIsKJXBlZ-39" value="&lt;b&gt;&lt;font style=&quot;font-size: 16px;&quot;&gt;Register&lt;/font&gt;&lt;/b&gt;&lt;div&gt;&lt;b&gt;&lt;font style=&quot;font-size: 16px;&quot;&gt;File&lt;/font&gt;&lt;/b&gt;&lt;/div&gt;" style="rounded=0;whiteSpace=wrap;html=1;fillColor=#f5f5f5;fontColor=#333333;strokeColor=#000000;strokeWidth=5;sketch=1;curveFitting=1;jiggle=2;" parent="1" vertex="1">
          <mxGeometry x="767.5" y="-120" width="140" height="180" as="geometry" />
        </mxCell>
        <mxCell id="0S-3l-w-nzVZIsKJXBlZ-179" style="edgeStyle=orthogonalEdgeStyle;rounded=0;orthogonalLoop=1;jettySize=auto;html=1;exitX=0;exitY=0.5;exitDx=0;exitDy=0;strokeWidth=3;strokeColor=#0000FF;endArrow=none;startFill=1;startArrow=classic;entryX=0.986;entryY=0.158;entryDx=0;entryDy=0;entryPerimeter=0;" parent="1" source="0S-3l-w-nzVZIsKJXBlZ-168" target="5N_nwnFfnxtBeg_xK4KU-37" edge="1">
          <mxGeometry relative="1" as="geometry">
            <mxPoint x="1960" y="-170" as="targetPoint" />
            <Array as="points">
              <mxPoint x="2083" y="-549" />
            </Array>
          </mxGeometry>
        </mxCell>
        <mxCell id="0S-3l-w-nzVZIsKJXBlZ-180" value="&lt;b&gt;ResultSrcW&lt;/b&gt;" style="edgeLabel;html=1;align=center;verticalAlign=middle;resizable=0;points=[];" parent="0S-3l-w-nzVZIsKJXBlZ-179" vertex="1" connectable="0">
          <mxGeometry x="0.2638" y="1" relative="1" as="geometry">
            <mxPoint x="-99" y="-83" as="offset" />
          </mxGeometry>
        </mxCell>
        <mxCell id="5N_nwnFfnxtBeg_xK4KU-64" value="&lt;b&gt;ResultSrcW&lt;/b&gt;" style="edgeLabel;html=1;align=center;verticalAlign=middle;resizable=0;points=[];" parent="0S-3l-w-nzVZIsKJXBlZ-179" vertex="1" connectable="0">
          <mxGeometry x="-0.8005" y="-1" relative="1" as="geometry">
            <mxPoint as="offset" />
          </mxGeometry>
        </mxCell>
        <mxCell id="0S-3l-w-nzVZIsKJXBlZ-168" value="&lt;b&gt;&amp;nbsp; &amp;nbsp; &amp;nbsp; &amp;nbsp; MUX&lt;/b&gt;" style="shape=trapezoid;perimeter=trapezoidPerimeter;whiteSpace=wrap;html=1;fixedSize=1;direction=south;sketch=1;curveFitting=1;jiggle=2;fillColor=#B3B3B3;fontColor=#333333;strokeColor=#666666;strokeWidth=2;" parent="1" vertex="1">
          <mxGeometry x="2053" y="-86.25" width="60" height="132.5" as="geometry" />
        </mxCell>
        <mxCell id="0S-3l-w-nzVZIsKJXBlZ-176" style="edgeStyle=orthogonalEdgeStyle;rounded=0;orthogonalLoop=1;jettySize=auto;html=1;exitX=1;exitY=0.25;exitDx=0;exitDy=0;entryX=0.25;entryY=1;entryDx=0;entryDy=0;strokeWidth=3;" parent="1" source="0S-3l-w-nzVZIsKJXBlZ-123" target="0S-3l-w-nzVZIsKJXBlZ-168" edge="1">
          <mxGeometry relative="1" as="geometry">
            <Array as="points">
              <mxPoint x="1620" y="-53" />
              <mxPoint x="1620" y="-190" />
              <mxPoint x="2033" y="-190" />
              <mxPoint x="2033" y="-53" />
            </Array>
          </mxGeometry>
        </mxCell>
        <mxCell id="0S-3l-w-nzVZIsKJXBlZ-177" value="&lt;b&gt;00&lt;/b&gt;" style="edgeLabel;html=1;align=center;verticalAlign=middle;resizable=0;points=[];" parent="0S-3l-w-nzVZIsKJXBlZ-176" vertex="1" connectable="0">
          <mxGeometry x="0.9624" y="-1" relative="1" as="geometry">
            <mxPoint x="23" y="-2" as="offset" />
          </mxGeometry>
        </mxCell>
        <mxCell id="0S-3l-w-nzVZIsKJXBlZ-172" style="edgeStyle=orthogonalEdgeStyle;rounded=0;orthogonalLoop=1;jettySize=auto;html=1;exitX=0.75;exitY=1;exitDx=0;exitDy=0;entryX=0.973;entryY=0.802;entryDx=0;entryDy=0;entryPerimeter=0;strokeWidth=3;endArrow=none;startFill=1;startArrow=classic;" parent="1" source="0S-3l-w-nzVZIsKJXBlZ-168" target="0S-3l-w-nzVZIsKJXBlZ-154" edge="1">
          <mxGeometry relative="1" as="geometry">
            <Array as="points">
              <mxPoint x="2013" y="13" />
              <mxPoint x="2013" y="140" />
              <mxPoint x="1932" y="140" />
            </Array>
          </mxGeometry>
        </mxCell>
        <mxCell id="0S-3l-w-nzVZIsKJXBlZ-175" value="&lt;b&gt;PCNextW&lt;/b&gt;" style="edgeLabel;html=1;align=center;verticalAlign=middle;resizable=0;points=[];" parent="0S-3l-w-nzVZIsKJXBlZ-172" vertex="1" connectable="0">
          <mxGeometry x="0.5297" y="-1" relative="1" as="geometry">
            <mxPoint x="-17" as="offset" />
          </mxGeometry>
        </mxCell>
        <mxCell id="0S-3l-w-nzVZIsKJXBlZ-178" value="&lt;b&gt;10&lt;/b&gt;" style="edgeLabel;html=1;align=center;verticalAlign=middle;resizable=0;points=[];" parent="0S-3l-w-nzVZIsKJXBlZ-172" vertex="1" connectable="0">
          <mxGeometry x="-0.8558" y="-2" relative="1" as="geometry">
            <mxPoint x="25" y="2" as="offset" />
          </mxGeometry>
        </mxCell>
        <mxCell id="0S-3l-w-nzVZIsKJXBlZ-166" style="edgeStyle=orthogonalEdgeStyle;rounded=0;orthogonalLoop=1;jettySize=auto;html=1;exitX=1;exitY=1;exitDx=0;exitDy=0;entryX=0.017;entryY=0.809;entryDx=0;entryDy=0;entryPerimeter=0;strokeWidth=3;" parent="1" source="0S-3l-w-nzVZIsKJXBlZ-123" target="0S-3l-w-nzVZIsKJXBlZ-154" edge="1">
          <mxGeometry relative="1" as="geometry">
            <Array as="points">
              <mxPoint x="1533" y="143" />
            </Array>
          </mxGeometry>
        </mxCell>
        <mxCell id="0S-3l-w-nzVZIsKJXBlZ-167" value="&lt;b&gt;PCPlus4M&lt;/b&gt;" style="edgeLabel;html=1;align=center;verticalAlign=middle;resizable=0;points=[];" parent="0S-3l-w-nzVZIsKJXBlZ-166" vertex="1" connectable="0">
          <mxGeometry x="-0.7011" y="-2" relative="1" as="geometry">
            <mxPoint x="40" y="-5" as="offset" />
          </mxGeometry>
        </mxCell>
        <mxCell id="0S-3l-w-nzVZIsKJXBlZ-133" value="&lt;span style=&quot;font-size: 16px;&quot;&gt;&lt;b&gt;Data&lt;/b&gt;&lt;/span&gt;&lt;div&gt;&lt;span style=&quot;font-size: 16px;&quot;&gt;&lt;b&gt;Memory&lt;/b&gt;&lt;/span&gt;&lt;/div&gt;" style="rounded=0;whiteSpace=wrap;html=1;fillColor=#f5f5f5;fontColor=#333333;strokeColor=#000000;strokeWidth=5;sketch=1;curveFitting=1;jiggle=2;" parent="1" vertex="1">
          <mxGeometry x="1643" y="-100" width="140" height="200" as="geometry" />
        </mxCell>
        <mxCell id="0S-3l-w-nzVZIsKJXBlZ-143" style="edgeStyle=orthogonalEdgeStyle;rounded=0;orthogonalLoop=1;jettySize=auto;html=1;exitX=1;exitY=0.25;exitDx=0;exitDy=0;strokeWidth=3;" parent="1" source="0S-3l-w-nzVZIsKJXBlZ-133" edge="1">
          <mxGeometry relative="1" as="geometry">
            <mxPoint x="1893" y="-50" as="targetPoint" />
          </mxGeometry>
        </mxCell>
        <mxCell id="0S-3l-w-nzVZIsKJXBlZ-144" value="&lt;b&gt;RD&lt;/b&gt;" style="edgeLabel;html=1;align=center;verticalAlign=middle;resizable=0;points=[];" parent="0S-3l-w-nzVZIsKJXBlZ-143" vertex="1" connectable="0">
          <mxGeometry x="-0.1214" y="1" relative="1" as="geometry">
            <mxPoint x="-68" as="offset" />
          </mxGeometry>
        </mxCell>
        <mxCell id="0S-3l-w-nzVZIsKJXBlZ-153" value="&lt;b&gt;ReadDataM&lt;/b&gt;" style="edgeLabel;html=1;align=center;verticalAlign=middle;resizable=0;points=[];" parent="0S-3l-w-nzVZIsKJXBlZ-143" vertex="1" connectable="0">
          <mxGeometry x="-0.4921" y="-1" relative="1" as="geometry">
            <mxPoint x="19" as="offset" />
          </mxGeometry>
        </mxCell>
        <mxCell id="0S-3l-w-nzVZIsKJXBlZ-94" style="edgeStyle=orthogonalEdgeStyle;rounded=0;orthogonalLoop=1;jettySize=auto;html=1;exitX=1;exitY=0.25;exitDx=0;exitDy=0;strokeWidth=3;entryX=0.25;entryY=1;entryDx=0;entryDy=0;" parent="1" source="0S-3l-w-nzVZIsKJXBlZ-77" target="zPqDqTLsyCB9AAuiYfrW-7" edge="1">
          <mxGeometry relative="1" as="geometry">
            <Array as="points">
              <mxPoint x="1040" y="-84" />
              <mxPoint x="1060" y="-84" />
              <mxPoint x="1060" y="-165" />
            </Array>
            <mxPoint x="1103" y="-52.5" as="sourcePoint" />
            <mxPoint x="1180" y="-84" as="targetPoint" />
          </mxGeometry>
        </mxCell>
        <mxCell id="0S-3l-w-nzVZIsKJXBlZ-95" value="&lt;b&gt;RD1E&lt;/b&gt;" style="edgeLabel;html=1;align=center;verticalAlign=middle;resizable=0;points=[];" parent="0S-3l-w-nzVZIsKJXBlZ-94" vertex="1" connectable="0">
          <mxGeometry x="-0.582" relative="1" as="geometry">
            <mxPoint x="27" y="-81" as="offset" />
          </mxGeometry>
        </mxCell>
        <mxCell id="zPqDqTLsyCB9AAuiYfrW-10" value="&lt;b&gt;00&lt;/b&gt;" style="edgeLabel;html=1;align=center;verticalAlign=middle;resizable=0;points=[];" parent="0S-3l-w-nzVZIsKJXBlZ-94" vertex="1" connectable="0">
          <mxGeometry x="0.8225" y="1" relative="1" as="geometry">
            <mxPoint x="26" as="offset" />
          </mxGeometry>
        </mxCell>
        <mxCell id="0S-3l-w-nzVZIsKJXBlZ-101" style="edgeStyle=orthogonalEdgeStyle;rounded=0;orthogonalLoop=1;jettySize=auto;html=1;exitX=0.5;exitY=0;exitDx=0;exitDy=0;entryX=0.75;entryY=1;entryDx=0;entryDy=0;strokeWidth=3;" parent="1" source="0S-3l-w-nzVZIsKJXBlZ-99" target="0S-3l-w-nzVZIsKJXBlZ-93" edge="1">
          <mxGeometry relative="1" as="geometry">
            <Array as="points">
              <mxPoint x="1273" y="-11" />
            </Array>
          </mxGeometry>
        </mxCell>
        <mxCell id="0S-3l-w-nzVZIsKJXBlZ-102" value="&lt;b&gt;SrcBE&lt;/b&gt;" style="edgeLabel;html=1;align=center;verticalAlign=middle;resizable=0;points=[];" parent="0S-3l-w-nzVZIsKJXBlZ-101" vertex="1" connectable="0">
          <mxGeometry x="0.4668" y="1" relative="1" as="geometry">
            <mxPoint x="-21" y="1" as="offset" />
          </mxGeometry>
        </mxCell>
        <mxCell id="0S-3l-w-nzVZIsKJXBlZ-85" value="" style="rounded=0;whiteSpace=wrap;html=1;fillColor=none;strokeColor=#990099;dashed=1;dashPattern=8 8;strokeWidth=2;" parent="1" vertex="1">
          <mxGeometry x="100" y="-200" width="450" height="520" as="geometry" />
        </mxCell>
        <mxCell id="0S-3l-w-nzVZIsKJXBlZ-71" style="edgeStyle=orthogonalEdgeStyle;rounded=0;orthogonalLoop=1;jettySize=auto;html=1;exitX=1;exitY=0.25;exitDx=0;exitDy=0;strokeWidth=3;entryX=0;entryY=0.2;entryDx=0;entryDy=0;entryPerimeter=0;" parent="1" source="0S-3l-w-nzVZIsKJXBlZ-39" target="0S-3l-w-nzVZIsKJXBlZ-77" edge="1">
          <mxGeometry relative="1" as="geometry">
            <mxPoint x="930" y="-70" as="targetPoint" />
            <Array as="points">
              <mxPoint x="908" y="-70" />
            </Array>
          </mxGeometry>
        </mxCell>
        <mxCell id="0S-3l-w-nzVZIsKJXBlZ-73" value="&lt;b&gt;RD1&lt;/b&gt;" style="edgeLabel;html=1;align=center;verticalAlign=middle;resizable=0;points=[];" parent="0S-3l-w-nzVZIsKJXBlZ-71" vertex="1" connectable="0">
          <mxGeometry x="-0.245" relative="1" as="geometry">
            <mxPoint x="-49" as="offset" />
          </mxGeometry>
        </mxCell>
        <mxCell id="0S-3l-w-nzVZIsKJXBlZ-75" value="&lt;b&gt;RD1D&lt;/b&gt;" style="edgeLabel;html=1;align=center;verticalAlign=middle;resizable=0;points=[];" parent="0S-3l-w-nzVZIsKJXBlZ-71" vertex="1" connectable="0">
          <mxGeometry x="-0.3287" relative="1" as="geometry">
            <mxPoint x="5" as="offset" />
          </mxGeometry>
        </mxCell>
        <mxCell id="0S-3l-w-nzVZIsKJXBlZ-72" style="edgeStyle=orthogonalEdgeStyle;rounded=0;orthogonalLoop=1;jettySize=auto;html=1;exitX=1;exitY=0.5;exitDx=0;exitDy=0;strokeWidth=3;entryX=-0.036;entryY=0.286;entryDx=0;entryDy=0;entryPerimeter=0;" parent="1" source="0S-3l-w-nzVZIsKJXBlZ-39" target="0S-3l-w-nzVZIsKJXBlZ-77" edge="1">
          <mxGeometry relative="1" as="geometry">
            <mxPoint x="930" y="-40" as="targetPoint" />
            <Array as="points">
              <mxPoint x="910" y="-30" />
              <mxPoint x="910" y="-40" />
            </Array>
          </mxGeometry>
        </mxCell>
        <mxCell id="0S-3l-w-nzVZIsKJXBlZ-74" value="&lt;b&gt;RD2&lt;/b&gt;" style="edgeLabel;html=1;align=center;verticalAlign=middle;resizable=0;points=[];" parent="0S-3l-w-nzVZIsKJXBlZ-72" vertex="1" connectable="0">
          <mxGeometry x="0.16" y="-2" relative="1" as="geometry">
            <mxPoint x="-66" y="-2" as="offset" />
          </mxGeometry>
        </mxCell>
        <mxCell id="0S-3l-w-nzVZIsKJXBlZ-76" value="&lt;b&gt;RD2D&lt;/b&gt;" style="edgeLabel;html=1;align=center;verticalAlign=middle;resizable=0;points=[];" parent="0S-3l-w-nzVZIsKJXBlZ-72" vertex="1" connectable="0">
          <mxGeometry x="-0.0011" y="1" relative="1" as="geometry">
            <mxPoint x="-8" as="offset" />
          </mxGeometry>
        </mxCell>
        <mxCell id="0S-3l-w-nzVZIsKJXBlZ-11" value="&lt;font style=&quot;font-size: 16px;&quot;&gt;&lt;b&gt;Instruction&lt;/b&gt;&lt;/font&gt;&lt;div&gt;&lt;font style=&quot;font-size: 16px;&quot;&gt;&lt;b&gt;Memory&lt;/b&gt;&lt;/font&gt;&lt;/div&gt;" style="rounded=0;whiteSpace=wrap;html=1;strokeWidth=5;fillColor=#f5f5f5;fontColor=#333333;strokeColor=#000000;sketch=1;curveFitting=1;jiggle=2;" parent="1" vertex="1">
          <mxGeometry x="380" y="-120" width="120" height="165" as="geometry" />
        </mxCell>
        <mxCell id="0S-3l-w-nzVZIsKJXBlZ-13" style="edgeStyle=orthogonalEdgeStyle;rounded=0;orthogonalLoop=1;jettySize=auto;html=1;exitX=1;exitY=0.25;exitDx=0;exitDy=0;strokeWidth=3;entryX=-0.052;entryY=0.198;entryDx=0;entryDy=0;entryPerimeter=0;" parent="1" source="0S-3l-w-nzVZIsKJXBlZ-11" target="0S-3l-w-nzVZIsKJXBlZ-24" edge="1">
          <mxGeometry relative="1" as="geometry">
            <mxPoint x="560" y="-79" as="targetPoint" />
            <Array as="points">
              <mxPoint x="500" y="-70" />
              <mxPoint x="535" y="-70" />
            </Array>
          </mxGeometry>
        </mxCell>
        <mxCell id="0S-3l-w-nzVZIsKJXBlZ-14" value="&lt;b&gt;RD&lt;/b&gt;" style="edgeLabel;html=1;align=center;verticalAlign=middle;resizable=0;points=[];" parent="0S-3l-w-nzVZIsKJXBlZ-13" vertex="1" connectable="0">
          <mxGeometry x="-0.4261" relative="1" as="geometry">
            <mxPoint x="-33" y="-1" as="offset" />
          </mxGeometry>
        </mxCell>
        <mxCell id="0S-3l-w-nzVZIsKJXBlZ-32" value="&lt;b&gt;InstrF&lt;/b&gt;" style="edgeLabel;html=1;align=center;verticalAlign=middle;resizable=0;points=[];" parent="0S-3l-w-nzVZIsKJXBlZ-13" vertex="1" connectable="0">
          <mxGeometry x="-0.193" y="1" relative="1" as="geometry">
            <mxPoint x="1" y="-10" as="offset" />
          </mxGeometry>
        </mxCell>
        <mxCell id="0S-3l-w-nzVZIsKJXBlZ-7" style="edgeStyle=orthogonalEdgeStyle;rounded=0;orthogonalLoop=1;jettySize=auto;html=1;exitX=1;exitY=0.5;exitDx=0;exitDy=0;strokeWidth=3;entryX=0;entryY=0.25;entryDx=0;entryDy=0;" parent="1" source="0S-3l-w-nzVZIsKJXBlZ-1" target="0S-3l-w-nzVZIsKJXBlZ-11" edge="1">
          <mxGeometry relative="1" as="geometry">
            <mxPoint x="380" y="-79.76190476190476" as="targetPoint" />
          </mxGeometry>
        </mxCell>
        <mxCell id="0S-3l-w-nzVZIsKJXBlZ-8" value="&lt;b&gt;PCF&lt;/b&gt;" style="edgeLabel;html=1;align=center;verticalAlign=middle;resizable=0;points=[];" parent="0S-3l-w-nzVZIsKJXBlZ-7" vertex="1" connectable="0">
          <mxGeometry x="-0.2722" relative="1" as="geometry">
            <mxPoint y="-10" as="offset" />
          </mxGeometry>
        </mxCell>
        <mxCell id="0S-3l-w-nzVZIsKJXBlZ-12" value="&lt;b&gt;A&lt;/b&gt;" style="edgeLabel;html=1;align=center;verticalAlign=middle;resizable=0;points=[];" parent="0S-3l-w-nzVZIsKJXBlZ-7" vertex="1" connectable="0">
          <mxGeometry x="0.3689" y="-1" relative="1" as="geometry">
            <mxPoint x="29" as="offset" />
          </mxGeometry>
        </mxCell>
        <mxCell id="0S-3l-w-nzVZIsKJXBlZ-15" style="edgeStyle=orthogonalEdgeStyle;rounded=0;orthogonalLoop=1;jettySize=auto;html=1;exitX=1;exitY=0.5;exitDx=0;exitDy=0;entryX=0.25;entryY=1;entryDx=0;entryDy=0;strokeWidth=3;" parent="1" source="0S-3l-w-nzVZIsKJXBlZ-1" target="0S-3l-w-nzVZIsKJXBlZ-16" edge="1">
          <mxGeometry relative="1" as="geometry">
            <mxPoint x="340" y="140" as="targetPoint" />
            <Array as="points">
              <mxPoint x="340" y="-80" />
              <mxPoint x="340" y="120" />
            </Array>
          </mxGeometry>
        </mxCell>
        <mxCell id="0S-3l-w-nzVZIsKJXBlZ-25" style="edgeStyle=orthogonalEdgeStyle;rounded=0;orthogonalLoop=1;jettySize=auto;html=1;exitX=0.5;exitY=0;exitDx=0;exitDy=0;strokeWidth=3;endArrow=none;startFill=1;startArrow=classic;strokeColor=#00FF00;" parent="1" source="0S-3l-w-nzVZIsKJXBlZ-1" edge="1">
          <mxGeometry relative="1" as="geometry">
            <mxPoint x="300" y="-180" as="targetPoint" />
          </mxGeometry>
        </mxCell>
        <mxCell id="0S-3l-w-nzVZIsKJXBlZ-26" value="&lt;b&gt;CLK&lt;/b&gt;" style="edgeLabel;html=1;align=center;verticalAlign=middle;resizable=0;points=[];" parent="0S-3l-w-nzVZIsKJXBlZ-25" vertex="1" connectable="0">
          <mxGeometry x="0.106" y="1" relative="1" as="geometry">
            <mxPoint as="offset" />
          </mxGeometry>
        </mxCell>
        <mxCell id="0S-3l-w-nzVZIsKJXBlZ-34" style="edgeStyle=orthogonalEdgeStyle;rounded=0;orthogonalLoop=1;jettySize=auto;html=1;exitX=1;exitY=0.5;exitDx=0;exitDy=0;entryX=0;entryY=0.75;entryDx=0;entryDy=0;strokeWidth=3;" parent="1" source="0S-3l-w-nzVZIsKJXBlZ-1" target="0S-3l-w-nzVZIsKJXBlZ-24" edge="1">
          <mxGeometry relative="1" as="geometry">
            <Array as="points">
              <mxPoint x="340" y="-80" />
              <mxPoint x="340" y="70" />
              <mxPoint x="500" y="70" />
              <mxPoint x="500" y="123" />
            </Array>
          </mxGeometry>
        </mxCell>
        <mxCell id="0S-3l-w-nzVZIsKJXBlZ-66" value="&lt;b&gt;PCF&lt;/b&gt;" style="edgeLabel;html=1;align=center;verticalAlign=middle;resizable=0;points=[];" parent="0S-3l-w-nzVZIsKJXBlZ-34" vertex="1" connectable="0">
          <mxGeometry x="0.8342" y="-2" relative="1" as="geometry">
            <mxPoint x="-1" y="-3" as="offset" />
          </mxGeometry>
        </mxCell>
        <mxCell id="0S-3l-w-nzVZIsKJXBlZ-1" value="&lt;b&gt;DFF&lt;/b&gt;" style="rounded=0;whiteSpace=wrap;html=1;sketch=1;curveFitting=1;jiggle=2;strokeWidth=3;fillColor=#fff2cc;strokeColor=#d6b656;" parent="1" vertex="1">
          <mxGeometry x="280" y="-120" width="40" height="80" as="geometry" />
        </mxCell>
        <mxCell id="0S-3l-w-nzVZIsKJXBlZ-5" style="edgeStyle=orthogonalEdgeStyle;rounded=0;orthogonalLoop=1;jettySize=auto;html=1;exitX=0.5;exitY=0;exitDx=0;exitDy=0;strokeWidth=3;" parent="1" source="0S-3l-w-nzVZIsKJXBlZ-2" target="0S-3l-w-nzVZIsKJXBlZ-1" edge="1">
          <mxGeometry relative="1" as="geometry" />
        </mxCell>
        <mxCell id="0S-3l-w-nzVZIsKJXBlZ-6" value="&lt;b&gt;PCNext&lt;/b&gt;" style="edgeLabel;html=1;align=center;verticalAlign=middle;resizable=0;points=[];" parent="0S-3l-w-nzVZIsKJXBlZ-5" vertex="1" connectable="0">
          <mxGeometry x="-0.2463" relative="1" as="geometry">
            <mxPoint as="offset" />
          </mxGeometry>
        </mxCell>
        <mxCell id="0S-3l-w-nzVZIsKJXBlZ-22" style="edgeStyle=orthogonalEdgeStyle;rounded=0;orthogonalLoop=1;jettySize=auto;html=1;exitX=0;exitY=0.5;exitDx=0;exitDy=0;strokeWidth=3;strokeColor=#0000FF;startArrow=classic;startFill=1;endArrow=none;entryX=1;entryY=0.5;entryDx=0;entryDy=0;entryPerimeter=0;" parent="1" source="0S-3l-w-nzVZIsKJXBlZ-2" target="5N_nwnFfnxtBeg_xK4KU-56" edge="1">
          <mxGeometry relative="1" as="geometry">
            <mxPoint x="189.91666666666674" y="-180" as="targetPoint" />
            <Array as="points">
              <mxPoint x="190" y="-700" />
            </Array>
          </mxGeometry>
        </mxCell>
        <mxCell id="0S-3l-w-nzVZIsKJXBlZ-23" value="&lt;b&gt;PCSrcE&lt;/b&gt;" style="edgeLabel;html=1;align=center;verticalAlign=middle;resizable=0;points=[];" parent="0S-3l-w-nzVZIsKJXBlZ-22" vertex="1" connectable="0">
          <mxGeometry x="0.3159" y="2" relative="1" as="geometry">
            <mxPoint x="435" y="2" as="offset" />
          </mxGeometry>
        </mxCell>
        <mxCell id="5N_nwnFfnxtBeg_xK4KU-60" value="&lt;b&gt;PCSrcE&lt;/b&gt;" style="edgeLabel;html=1;align=center;verticalAlign=middle;resizable=0;points=[];" parent="0S-3l-w-nzVZIsKJXBlZ-22" vertex="1" connectable="0">
          <mxGeometry x="-0.9398" y="1" relative="1" as="geometry">
            <mxPoint as="offset" />
          </mxGeometry>
        </mxCell>
        <mxCell id="0S-3l-w-nzVZIsKJXBlZ-2" value="&lt;b&gt;MUX&lt;/b&gt;" style="shape=trapezoid;perimeter=trapezoidPerimeter;whiteSpace=wrap;html=1;fixedSize=1;direction=south;sketch=1;curveFitting=1;jiggle=2;fillColor=#B3B3B3;fontColor=#333333;strokeColor=#666666;strokeWidth=2;" parent="1" vertex="1">
          <mxGeometry x="170" y="-125" width="40" height="90" as="geometry" />
        </mxCell>
        <mxCell id="0S-3l-w-nzVZIsKJXBlZ-3" value="" style="endArrow=none;html=1;rounded=0;exitX=0.25;exitY=0;exitDx=0;exitDy=0;entryX=0.5;entryY=0.125;entryDx=0;entryDy=0;entryPerimeter=0;shadow=1;fillColor=#fff2cc;strokeColor=#d6b656;strokeWidth=3;" parent="1" source="0S-3l-w-nzVZIsKJXBlZ-1" target="0S-3l-w-nzVZIsKJXBlZ-1" edge="1">
          <mxGeometry width="50" height="50" relative="1" as="geometry">
            <mxPoint x="370" y="-50" as="sourcePoint" />
            <mxPoint x="370" y="-90" as="targetPoint" />
          </mxGeometry>
        </mxCell>
        <mxCell id="0S-3l-w-nzVZIsKJXBlZ-4" value="" style="endArrow=none;html=1;rounded=0;exitX=0.25;exitY=0;exitDx=0;exitDy=0;entryX=0.75;entryY=0;entryDx=0;entryDy=0;shadow=1;fillColor=#fff2cc;strokeColor=#d6b656;strokeWidth=3;" parent="1" target="0S-3l-w-nzVZIsKJXBlZ-1" edge="1">
          <mxGeometry width="50" height="50" relative="1" as="geometry">
            <mxPoint x="300" y="-110" as="sourcePoint" />
            <mxPoint x="310" y="-100" as="targetPoint" />
          </mxGeometry>
        </mxCell>
        <mxCell id="0S-3l-w-nzVZIsKJXBlZ-19" style="edgeStyle=orthogonalEdgeStyle;rounded=0;orthogonalLoop=1;jettySize=auto;html=1;exitX=0.5;exitY=0;exitDx=0;exitDy=0;strokeWidth=3;entryX=0.25;entryY=1;entryDx=0;entryDy=0;" parent="1" source="0S-3l-w-nzVZIsKJXBlZ-16" target="0S-3l-w-nzVZIsKJXBlZ-2" edge="1">
          <mxGeometry relative="1" as="geometry">
            <mxPoint x="510" y="149.64" as="targetPoint" />
            <mxPoint x="450" y="149.63999999999987" as="sourcePoint" />
            <Array as="points">
              <mxPoint x="510" y="150" />
              <mxPoint x="510" y="240" />
              <mxPoint x="120" y="240" />
              <mxPoint x="120" y="-102" />
            </Array>
          </mxGeometry>
        </mxCell>
        <mxCell id="0S-3l-w-nzVZIsKJXBlZ-20" value="&lt;b&gt;PCPlus4F&lt;/b&gt;" style="edgeLabel;html=1;align=center;verticalAlign=middle;resizable=0;points=[];" parent="0S-3l-w-nzVZIsKJXBlZ-19" vertex="1" connectable="0">
          <mxGeometry x="-0.2539" y="-1" relative="1" as="geometry">
            <mxPoint x="154" y="-79" as="offset" />
          </mxGeometry>
        </mxCell>
        <mxCell id="0S-3l-w-nzVZIsKJXBlZ-21" value="&lt;b&gt;0&lt;/b&gt;" style="edgeLabel;html=1;align=center;verticalAlign=middle;resizable=0;points=[];" parent="0S-3l-w-nzVZIsKJXBlZ-19" vertex="1" connectable="0">
          <mxGeometry x="0.9433" y="1" relative="1" as="geometry">
            <mxPoint x="36" as="offset" />
          </mxGeometry>
        </mxCell>
        <mxCell id="0S-3l-w-nzVZIsKJXBlZ-16" value="&lt;b&gt;&lt;font style=&quot;font-size: 14px;&quot;&gt;Adder&lt;/font&gt;&lt;/b&gt;" style="shape=trapezoid;perimeter=trapezoidPerimeter;whiteSpace=wrap;html=1;fixedSize=1;rotation=90;fillColor=#f5f5f5;fontColor=#333333;strokeColor=#000000;sketch=1;curveFitting=1;jiggle=2;strokeWidth=5;" parent="1" vertex="1">
          <mxGeometry x="350" y="120" width="120" height="60" as="geometry" />
        </mxCell>
        <mxCell id="0S-3l-w-nzVZIsKJXBlZ-17" style="edgeStyle=orthogonalEdgeStyle;rounded=0;orthogonalLoop=1;jettySize=auto;html=1;exitX=0.75;exitY=1;exitDx=0;exitDy=0;strokeWidth=3;endArrow=none;startFill=1;startArrow=classic;" parent="1" source="0S-3l-w-nzVZIsKJXBlZ-16" edge="1">
          <mxGeometry relative="1" as="geometry">
            <mxPoint x="330" y="180.34782608695662" as="targetPoint" />
          </mxGeometry>
        </mxCell>
        <mxCell id="0S-3l-w-nzVZIsKJXBlZ-18" value="&lt;b&gt;4&lt;/b&gt;" style="edgeLabel;html=1;align=center;verticalAlign=middle;resizable=0;points=[];" parent="0S-3l-w-nzVZIsKJXBlZ-17" vertex="1" connectable="0">
          <mxGeometry x="0.4886" relative="1" as="geometry">
            <mxPoint x="-23" y="-1" as="offset" />
          </mxGeometry>
        </mxCell>
        <mxCell id="0S-3l-w-nzVZIsKJXBlZ-37" style="edgeStyle=orthogonalEdgeStyle;rounded=0;orthogonalLoop=1;jettySize=auto;html=1;exitX=1;exitY=0.25;exitDx=0;exitDy=0;strokeWidth=3;entryX=0.002;entryY=0.278;entryDx=0;entryDy=0;entryPerimeter=0;" parent="1" source="0S-3l-w-nzVZIsKJXBlZ-24" target="0S-3l-w-nzVZIsKJXBlZ-39" edge="1">
          <mxGeometry relative="1" as="geometry">
            <mxPoint x="744" y="-70" as="targetPoint" />
            <Array as="points">
              <mxPoint x="610" y="-70" />
            </Array>
          </mxGeometry>
        </mxCell>
        <mxCell id="0S-3l-w-nzVZIsKJXBlZ-38" value="&lt;b&gt;InstrD&lt;/b&gt;" style="edgeLabel;html=1;align=center;verticalAlign=middle;resizable=0;points=[];" parent="0S-3l-w-nzVZIsKJXBlZ-37" vertex="1" connectable="0">
          <mxGeometry x="-0.2527" y="-1" relative="1" as="geometry">
            <mxPoint x="-3" y="-11" as="offset" />
          </mxGeometry>
        </mxCell>
        <mxCell id="0S-3l-w-nzVZIsKJXBlZ-40" value="&lt;b&gt;A1&lt;/b&gt;" style="edgeLabel;html=1;align=center;verticalAlign=middle;resizable=0;points=[];" parent="0S-3l-w-nzVZIsKJXBlZ-37" vertex="1" connectable="0">
          <mxGeometry x="0.6496" y="1" relative="1" as="geometry">
            <mxPoint x="43" as="offset" />
          </mxGeometry>
        </mxCell>
        <mxCell id="0S-3l-w-nzVZIsKJXBlZ-42" value="&lt;b&gt;Rs1D&lt;/b&gt;" style="edgeLabel;html=1;align=center;verticalAlign=middle;resizable=0;points=[];" parent="0S-3l-w-nzVZIsKJXBlZ-37" vertex="1" connectable="0">
          <mxGeometry x="0.4813" y="2" relative="1" as="geometry">
            <mxPoint x="-12" y="1" as="offset" />
          </mxGeometry>
        </mxCell>
        <mxCell id="0S-3l-w-nzVZIsKJXBlZ-28" style="edgeStyle=orthogonalEdgeStyle;rounded=0;orthogonalLoop=1;jettySize=auto;html=1;exitX=0.5;exitY=0;exitDx=0;exitDy=0;strokeWidth=3;endArrow=none;startFill=1;startArrow=classic;strokeColor=#00FF00;" parent="1" edge="1">
          <mxGeometry relative="1" as="geometry">
            <mxPoint x="590" y="-200" as="targetPoint" />
            <mxPoint x="590" y="-140" as="sourcePoint" />
          </mxGeometry>
        </mxCell>
        <mxCell id="0S-3l-w-nzVZIsKJXBlZ-29" value="&lt;b&gt;CLK&lt;/b&gt;" style="edgeLabel;html=1;align=center;verticalAlign=middle;resizable=0;points=[];" parent="0S-3l-w-nzVZIsKJXBlZ-28" vertex="1" connectable="0">
          <mxGeometry x="0.106" y="1" relative="1" as="geometry">
            <mxPoint as="offset" />
          </mxGeometry>
        </mxCell>
        <mxCell id="0S-3l-w-nzVZIsKJXBlZ-36" style="edgeStyle=orthogonalEdgeStyle;rounded=0;orthogonalLoop=1;jettySize=auto;html=1;exitX=0.5;exitY=0;exitDx=0;exitDy=0;entryX=-0.075;entryY=0.826;entryDx=0;entryDy=0;entryPerimeter=0;strokeWidth=3;" parent="1" source="0S-3l-w-nzVZIsKJXBlZ-16" target="0S-3l-w-nzVZIsKJXBlZ-24" edge="1">
          <mxGeometry relative="1" as="geometry" />
        </mxCell>
        <mxCell id="0S-3l-w-nzVZIsKJXBlZ-41" style="edgeStyle=orthogonalEdgeStyle;rounded=0;orthogonalLoop=1;jettySize=auto;html=1;exitX=1;exitY=0.25;exitDx=0;exitDy=0;strokeWidth=3;" parent="1" source="0S-3l-w-nzVZIsKJXBlZ-24" edge="1">
          <mxGeometry relative="1" as="geometry">
            <mxPoint x="766" y="-40" as="targetPoint" />
            <Array as="points">
              <mxPoint x="610" y="-70" />
              <mxPoint x="680" y="-70" />
              <mxPoint x="680" y="-40" />
            </Array>
          </mxGeometry>
        </mxCell>
        <mxCell id="0S-3l-w-nzVZIsKJXBlZ-43" value="&lt;b&gt;Rs2D&lt;/b&gt;" style="edgeLabel;html=1;align=center;verticalAlign=middle;resizable=0;points=[];" parent="0S-3l-w-nzVZIsKJXBlZ-41" vertex="1" connectable="0">
          <mxGeometry x="0.5898" relative="1" as="geometry">
            <mxPoint x="-14" as="offset" />
          </mxGeometry>
        </mxCell>
        <mxCell id="0S-3l-w-nzVZIsKJXBlZ-44" value="&lt;b&gt;A2&lt;/b&gt;" style="edgeLabel;html=1;align=center;verticalAlign=middle;resizable=0;points=[];" parent="0S-3l-w-nzVZIsKJXBlZ-41" vertex="1" connectable="0">
          <mxGeometry x="0.8198" relative="1" as="geometry">
            <mxPoint x="32" as="offset" />
          </mxGeometry>
        </mxCell>
        <mxCell id="0S-3l-w-nzVZIsKJXBlZ-65" style="edgeStyle=orthogonalEdgeStyle;rounded=0;orthogonalLoop=1;jettySize=auto;html=1;exitX=1;exitY=0.75;exitDx=0;exitDy=0;strokeWidth=3;strokeColor=#CCCCCC;entryX=0;entryY=0.75;entryDx=0;entryDy=0;" parent="1" source="0S-3l-w-nzVZIsKJXBlZ-24" target="0S-3l-w-nzVZIsKJXBlZ-77" edge="1">
          <mxGeometry relative="1" as="geometry">
            <mxPoint x="920" y="160" as="targetPoint" />
            <Array as="points">
              <mxPoint x="610" y="150" />
              <mxPoint x="720" y="150" />
              <mxPoint x="720" y="160" />
              <mxPoint x="940" y="160" />
              <mxPoint x="940" y="123" />
            </Array>
          </mxGeometry>
        </mxCell>
        <mxCell id="0S-3l-w-nzVZIsKJXBlZ-68" value="&lt;b&gt;PCPlus4D&lt;/b&gt;" style="edgeLabel;html=1;align=center;verticalAlign=middle;resizable=0;points=[];" parent="0S-3l-w-nzVZIsKJXBlZ-65" vertex="1" connectable="0">
          <mxGeometry x="-0.663" y="1" relative="1" as="geometry">
            <mxPoint x="-11" y="1" as="offset" />
          </mxGeometry>
        </mxCell>
        <mxCell id="0S-3l-w-nzVZIsKJXBlZ-69" style="edgeStyle=orthogonalEdgeStyle;rounded=0;orthogonalLoop=1;jettySize=auto;html=1;exitX=1;exitY=0.75;exitDx=0;exitDy=0;strokeWidth=3;strokeColor=#CCCCCC;entryX=-0.024;entryY=0.686;entryDx=0;entryDy=0;entryPerimeter=0;" parent="1" source="0S-3l-w-nzVZIsKJXBlZ-24" target="0S-3l-w-nzVZIsKJXBlZ-77" edge="1">
          <mxGeometry relative="1" as="geometry">
            <mxPoint x="920" y="122.61904761904759" as="targetPoint" />
            <Array as="points">
              <mxPoint x="730" y="123" />
              <mxPoint x="730" y="150" />
              <mxPoint x="930" y="150" />
              <mxPoint x="930" y="100" />
            </Array>
          </mxGeometry>
        </mxCell>
        <mxCell id="0S-3l-w-nzVZIsKJXBlZ-70" value="&lt;b&gt;PCD&lt;/b&gt;" style="edgeLabel;html=1;align=center;verticalAlign=middle;resizable=0;points=[];" parent="0S-3l-w-nzVZIsKJXBlZ-69" vertex="1" connectable="0">
          <mxGeometry x="-0.8645" relative="1" as="geometry">
            <mxPoint y="-1" as="offset" />
          </mxGeometry>
        </mxCell>
        <mxCell id="zPqDqTLsyCB9AAuiYfrW-47" value="&lt;b&gt;PCD&lt;/b&gt;" style="edgeLabel;html=1;align=center;verticalAlign=middle;resizable=0;points=[];" parent="0S-3l-w-nzVZIsKJXBlZ-69" vertex="1" connectable="0">
          <mxGeometry x="0.8285" y="2" relative="1" as="geometry">
            <mxPoint y="2" as="offset" />
          </mxGeometry>
        </mxCell>
        <mxCell id="5N_nwnFfnxtBeg_xK4KU-2" style="edgeStyle=orthogonalEdgeStyle;rounded=0;orthogonalLoop=1;jettySize=auto;html=1;exitX=1;exitY=0.25;exitDx=0;exitDy=0;entryX=0;entryY=0.5;entryDx=0;entryDy=0;strokeWidth=3;" parent="1" source="0S-3l-w-nzVZIsKJXBlZ-24" target="5N_nwnFfnxtBeg_xK4KU-1" edge="1">
          <mxGeometry relative="1" as="geometry">
            <Array as="points">
              <mxPoint x="610" y="-70" />
              <mxPoint x="680" y="-70" />
              <mxPoint x="680" y="-445" />
            </Array>
          </mxGeometry>
        </mxCell>
        <mxCell id="5N_nwnFfnxtBeg_xK4KU-3" value="&lt;b&gt;OP&lt;/b&gt;" style="edgeLabel;html=1;align=center;verticalAlign=middle;resizable=0;points=[];" parent="5N_nwnFfnxtBeg_xK4KU-2" vertex="1" connectable="0">
          <mxGeometry x="0.8407" y="3" relative="1" as="geometry">
            <mxPoint x="4" y="3" as="offset" />
          </mxGeometry>
        </mxCell>
        <mxCell id="5N_nwnFfnxtBeg_xK4KU-4" style="edgeStyle=orthogonalEdgeStyle;rounded=0;orthogonalLoop=1;jettySize=auto;html=1;exitX=1;exitY=0.25;exitDx=0;exitDy=0;entryX=0;entryY=0.75;entryDx=0;entryDy=0;strokeWidth=3;" parent="1" source="0S-3l-w-nzVZIsKJXBlZ-24" target="5N_nwnFfnxtBeg_xK4KU-1" edge="1">
          <mxGeometry relative="1" as="geometry">
            <Array as="points">
              <mxPoint x="610" y="-70" />
              <mxPoint x="680" y="-70" />
              <mxPoint x="680" y="-362" />
            </Array>
          </mxGeometry>
        </mxCell>
        <mxCell id="5N_nwnFfnxtBeg_xK4KU-5" value="&lt;b&gt;funct3&lt;/b&gt;" style="edgeLabel;html=1;align=center;verticalAlign=middle;resizable=0;points=[];" parent="5N_nwnFfnxtBeg_xK4KU-4" vertex="1" connectable="0">
          <mxGeometry x="0.818" y="1" relative="1" as="geometry">
            <mxPoint as="offset" />
          </mxGeometry>
        </mxCell>
        <mxCell id="0S-3l-w-nzVZIsKJXBlZ-56" value="&lt;b&gt;&lt;font style=&quot;font-size: 14px;&quot;&gt;Extended&lt;/font&gt;&lt;/b&gt;" style="rounded=0;whiteSpace=wrap;html=1;sketch=1;curveFitting=1;jiggle=2;fillColor=#e1d5e7;strokeColor=#9673a6;strokeWidth=4;" parent="1" vertex="1">
          <mxGeometry x="767.5" y="80" width="100" height="60" as="geometry" />
        </mxCell>
        <mxCell id="0S-3l-w-nzVZIsKJXBlZ-60" style="edgeStyle=orthogonalEdgeStyle;rounded=0;orthogonalLoop=1;jettySize=auto;html=1;exitX=0.75;exitY=0;exitDx=0;exitDy=0;strokeWidth=3;strokeColor=#0000FF;endArrow=none;startFill=1;startArrow=classic;entryX=1.071;entryY=0.08;entryDx=0;entryDy=0;entryPerimeter=0;" parent="1" source="0S-3l-w-nzVZIsKJXBlZ-39" target="5N_nwnFfnxtBeg_xK4KU-37" edge="1">
          <mxGeometry relative="1" as="geometry">
            <mxPoint x="834.9444444444443" y="-180" as="targetPoint" />
            <Array as="points">
              <mxPoint x="873" y="-130" />
              <mxPoint x="873" y="-130" />
              <mxPoint x="873" y="-240" />
              <mxPoint x="650" y="-240" />
              <mxPoint x="650" y="-750" />
              <mxPoint x="2080" y="-750" />
              <mxPoint x="2080" y="-580" />
              <mxPoint x="1936" y="-580" />
            </Array>
          </mxGeometry>
        </mxCell>
        <mxCell id="0S-3l-w-nzVZIsKJXBlZ-61" value="&lt;b&gt;RegWriteW&lt;/b&gt;" style="edgeLabel;html=1;align=center;verticalAlign=middle;resizable=0;points=[];" parent="0S-3l-w-nzVZIsKJXBlZ-60" vertex="1" connectable="0">
          <mxGeometry x="0.5177" relative="1" as="geometry">
            <mxPoint x="209" y="170" as="offset" />
          </mxGeometry>
        </mxCell>
        <mxCell id="0S-3l-w-nzVZIsKJXBlZ-62" value="&lt;b&gt;WE3&lt;/b&gt;" style="edgeLabel;html=1;align=center;verticalAlign=middle;resizable=0;points=[];" parent="0S-3l-w-nzVZIsKJXBlZ-60" vertex="1" connectable="0">
          <mxGeometry x="-0.0102" y="-1" relative="1" as="geometry">
            <mxPoint x="-215" y="639" as="offset" />
          </mxGeometry>
        </mxCell>
        <mxCell id="5N_nwnFfnxtBeg_xK4KU-52" value="&lt;b&gt;RegWriteW&lt;/b&gt;" style="edgeLabel;html=1;align=center;verticalAlign=middle;resizable=0;points=[];" parent="0S-3l-w-nzVZIsKJXBlZ-60" vertex="1" connectable="0">
          <mxGeometry x="-0.9518" y="1" relative="1" as="geometry">
            <mxPoint y="-1" as="offset" />
          </mxGeometry>
        </mxCell>
        <mxCell id="0S-3l-w-nzVZIsKJXBlZ-78" style="edgeStyle=orthogonalEdgeStyle;rounded=0;orthogonalLoop=1;jettySize=auto;html=1;exitX=1;exitY=0.5;exitDx=0;exitDy=0;strokeWidth=3;entryX=0;entryY=0.629;entryDx=0;entryDy=0;entryPerimeter=0;" parent="1" source="0S-3l-w-nzVZIsKJXBlZ-56" target="0S-3l-w-nzVZIsKJXBlZ-77" edge="1">
          <mxGeometry relative="1" as="geometry">
            <mxPoint x="910" y="100" as="targetPoint" />
            <Array as="points">
              <mxPoint x="920" y="110" />
              <mxPoint x="920" y="80" />
            </Array>
          </mxGeometry>
        </mxCell>
        <mxCell id="0S-3l-w-nzVZIsKJXBlZ-79" value="&lt;b&gt;&lt;font style=&quot;font-size: 10px;&quot;&gt;ImmExtD&lt;/font&gt;&lt;/b&gt;" style="edgeLabel;html=1;align=center;verticalAlign=middle;resizable=0;points=[];" parent="0S-3l-w-nzVZIsKJXBlZ-78" vertex="1" connectable="0">
          <mxGeometry x="-0.7908" y="2" relative="1" as="geometry">
            <mxPoint x="8" y="2" as="offset" />
          </mxGeometry>
        </mxCell>
        <mxCell id="0S-3l-w-nzVZIsKJXBlZ-80" style="edgeStyle=orthogonalEdgeStyle;rounded=0;orthogonalLoop=1;jettySize=auto;html=1;exitX=0.5;exitY=0;exitDx=0;exitDy=0;strokeWidth=3;endArrow=none;startFill=1;startArrow=classic;strokeColor=#00FF00;" parent="1" edge="1">
          <mxGeometry relative="1" as="geometry">
            <mxPoint x="1020" y="-200" as="targetPoint" />
            <mxPoint x="1020" y="-140" as="sourcePoint" />
          </mxGeometry>
        </mxCell>
        <mxCell id="0S-3l-w-nzVZIsKJXBlZ-81" value="&lt;b&gt;CLK&lt;/b&gt;" style="edgeLabel;html=1;align=center;verticalAlign=middle;resizable=0;points=[];" parent="0S-3l-w-nzVZIsKJXBlZ-80" vertex="1" connectable="0">
          <mxGeometry x="0.106" y="1" relative="1" as="geometry">
            <mxPoint as="offset" />
          </mxGeometry>
        </mxCell>
        <mxCell id="0S-3l-w-nzVZIsKJXBlZ-90" value="&lt;font style=&quot;font-size: 18px;&quot;&gt;&lt;b&gt;FETCH&lt;/b&gt;&lt;/font&gt;" style="text;html=1;align=center;verticalAlign=middle;whiteSpace=wrap;rounded=0;fontColor=#990099;" parent="1" vertex="1">
          <mxGeometry x="180" y="280" width="60" height="30" as="geometry" />
        </mxCell>
        <mxCell id="0S-3l-w-nzVZIsKJXBlZ-92" value="&lt;font style=&quot;font-size: 18px;&quot;&gt;&lt;b&gt;DECODE&lt;/b&gt;&lt;/font&gt;" style="text;html=1;align=center;verticalAlign=middle;whiteSpace=wrap;rounded=0;fontColor=#990099;" parent="1" vertex="1">
          <mxGeometry x="740" y="280" width="60" height="30" as="geometry" />
        </mxCell>
        <mxCell id="0S-3l-w-nzVZIsKJXBlZ-108" style="edgeStyle=orthogonalEdgeStyle;rounded=0;orthogonalLoop=1;jettySize=auto;html=1;exitX=0;exitY=0.75;exitDx=0;exitDy=0;strokeWidth=3;entryX=0;entryY=0.75;entryDx=0;entryDy=0;" parent="1" source="0S-3l-w-nzVZIsKJXBlZ-93" target="5N_nwnFfnxtBeg_xK4KU-53" edge="1">
          <mxGeometry relative="1" as="geometry">
            <mxPoint x="1130" y="-240" as="targetPoint" />
            <Array as="points">
              <mxPoint x="1342" y="-723" />
            </Array>
          </mxGeometry>
        </mxCell>
        <mxCell id="0S-3l-w-nzVZIsKJXBlZ-109" value="&lt;b&gt;zeroE&lt;/b&gt;" style="edgeLabel;html=1;align=center;verticalAlign=middle;resizable=0;points=[];" parent="0S-3l-w-nzVZIsKJXBlZ-108" vertex="1" connectable="0">
          <mxGeometry x="-0.5821" y="-1" relative="1" as="geometry">
            <mxPoint x="-10" y="100" as="offset" />
          </mxGeometry>
        </mxCell>
        <mxCell id="0S-3l-w-nzVZIsKJXBlZ-110" style="edgeStyle=orthogonalEdgeStyle;rounded=0;orthogonalLoop=1;jettySize=auto;html=1;exitX=0;exitY=0.25;exitDx=0;exitDy=0;strokeWidth=3;strokeColor=#0000FF;endArrow=none;startFill=1;startArrow=classic;entryX=1.034;entryY=0.597;entryDx=0;entryDy=0;entryPerimeter=0;" parent="1" source="0S-3l-w-nzVZIsKJXBlZ-93" target="5N_nwnFfnxtBeg_xK4KU-8" edge="1">
          <mxGeometry relative="1" as="geometry">
            <mxPoint x="1244" y="-230" as="targetPoint" />
            <Array as="points">
              <mxPoint x="1368" y="-414" />
            </Array>
          </mxGeometry>
        </mxCell>
        <mxCell id="0S-3l-w-nzVZIsKJXBlZ-111" value="&lt;b&gt;ALUControlE&lt;/b&gt;" style="edgeLabel;html=1;align=center;verticalAlign=middle;resizable=0;points=[];" parent="0S-3l-w-nzVZIsKJXBlZ-110" vertex="1" connectable="0">
          <mxGeometry x="0.4272" y="4" relative="1" as="geometry">
            <mxPoint x="-113" y="-3" as="offset" />
          </mxGeometry>
        </mxCell>
        <mxCell id="5N_nwnFfnxtBeg_xK4KU-62" value="&lt;b&gt;ALUControlE&lt;/b&gt;" style="edgeLabel;html=1;align=center;verticalAlign=middle;resizable=0;points=[];" parent="0S-3l-w-nzVZIsKJXBlZ-110" vertex="1" connectable="0">
          <mxGeometry x="-0.8322" relative="1" as="geometry">
            <mxPoint x="25" y="14" as="offset" />
          </mxGeometry>
        </mxCell>
        <mxCell id="0S-3l-w-nzVZIsKJXBlZ-121" style="edgeStyle=orthogonalEdgeStyle;rounded=0;orthogonalLoop=1;jettySize=auto;html=1;exitX=0.5;exitY=0;exitDx=0;exitDy=0;strokeWidth=3;" parent="1" source="0S-3l-w-nzVZIsKJXBlZ-93" edge="1">
          <mxGeometry relative="1" as="geometry">
            <mxPoint x="1493" y="-47.69696969696963" as="targetPoint" />
          </mxGeometry>
        </mxCell>
        <mxCell id="0S-3l-w-nzVZIsKJXBlZ-122" value="&lt;b&gt;ALUResultE&lt;/b&gt;" style="edgeLabel;html=1;align=center;verticalAlign=middle;resizable=0;points=[];" parent="0S-3l-w-nzVZIsKJXBlZ-121" vertex="1" connectable="0">
          <mxGeometry x="-0.2919" y="-1" relative="1" as="geometry">
            <mxPoint x="4" y="-1" as="offset" />
          </mxGeometry>
        </mxCell>
        <mxCell id="0S-3l-w-nzVZIsKJXBlZ-93" value="&lt;b&gt;&lt;font style=&quot;font-size: 16px;&quot;&gt;ALU&lt;/font&gt;&lt;/b&gt;" style="shape=trapezoid;perimeter=trapezoidPerimeter;whiteSpace=wrap;html=1;fixedSize=1;rotation=90;fillColor=#f5f5f5;fontColor=#333333;strokeColor=#000000;strokeWidth=5;sketch=1;curveFitting=1;jiggle=2;" parent="1" vertex="1">
          <mxGeometry x="1283" y="-77.5" width="145" height="60" as="geometry" />
        </mxCell>
        <mxCell id="0S-3l-w-nzVZIsKJXBlZ-115" style="edgeStyle=orthogonalEdgeStyle;rounded=0;orthogonalLoop=1;jettySize=auto;html=1;exitX=0.25;exitY=1;exitDx=0;exitDy=0;strokeWidth=3;endArrow=none;startFill=1;startArrow=classic;" parent="1" source="0S-3l-w-nzVZIsKJXBlZ-114" edge="1">
          <mxGeometry relative="1" as="geometry">
            <mxPoint x="1183" y="80" as="targetPoint" />
            <Array as="points">
              <mxPoint x="1220" y="110" />
              <mxPoint x="1220" y="80" />
            </Array>
          </mxGeometry>
        </mxCell>
        <mxCell id="0S-3l-w-nzVZIsKJXBlZ-119" style="edgeStyle=orthogonalEdgeStyle;rounded=0;orthogonalLoop=1;jettySize=auto;html=1;exitX=0.5;exitY=0;exitDx=0;exitDy=0;strokeWidth=3;entryX=0.75;entryY=1;entryDx=0;entryDy=0;" parent="1" source="0S-3l-w-nzVZIsKJXBlZ-114" target="0S-3l-w-nzVZIsKJXBlZ-2" edge="1">
          <mxGeometry relative="1" as="geometry">
            <mxPoint x="990" y="380" as="targetPoint" />
            <Array as="points">
              <mxPoint x="1390" y="140" />
              <mxPoint x="1390" y="260" />
              <mxPoint x="140" y="260" />
              <mxPoint x="140" y="-57" />
            </Array>
          </mxGeometry>
        </mxCell>
        <mxCell id="0S-3l-w-nzVZIsKJXBlZ-120" value="&lt;b&gt;PCTargetE&lt;/b&gt;" style="edgeLabel;html=1;align=center;verticalAlign=middle;resizable=0;points=[];" parent="0S-3l-w-nzVZIsKJXBlZ-119" vertex="1" connectable="0">
          <mxGeometry x="-0.178" y="2" relative="1" as="geometry">
            <mxPoint x="500" y="-122" as="offset" />
          </mxGeometry>
        </mxCell>
        <mxCell id="0S-3l-w-nzVZIsKJXBlZ-173" value="&lt;b&gt;1&lt;/b&gt;" style="edgeLabel;html=1;align=center;verticalAlign=middle;resizable=0;points=[];" parent="0S-3l-w-nzVZIsKJXBlZ-119" vertex="1" connectable="0">
          <mxGeometry x="0.9749" relative="1" as="geometry">
            <mxPoint x="32" as="offset" />
          </mxGeometry>
        </mxCell>
        <mxCell id="0S-3l-w-nzVZIsKJXBlZ-114" value="&lt;b&gt;&lt;font style=&quot;font-size: 14px;&quot;&gt;Adder&lt;/font&gt;&lt;/b&gt;" style="shape=trapezoid;perimeter=trapezoidPerimeter;whiteSpace=wrap;html=1;fixedSize=1;rotation=90;fillColor=#f5f5f5;fontColor=#333333;strokeColor=#000000;sketch=1;curveFitting=1;jiggle=2;strokeWidth=5;" parent="1" vertex="1">
          <mxGeometry x="1223" y="110" width="120" height="60" as="geometry" />
        </mxCell>
        <mxCell id="0S-3l-w-nzVZIsKJXBlZ-123" value="&lt;b&gt;DFF&lt;/b&gt;" style="rounded=0;whiteSpace=wrap;html=1;sketch=1;curveFitting=1;jiggle=2;strokeWidth=3;fillColor=#fff2cc;strokeColor=#d6b656;" parent="1" vertex="1">
          <mxGeometry x="1493" y="-140" width="40" height="350" as="geometry" />
        </mxCell>
        <mxCell id="0S-3l-w-nzVZIsKJXBlZ-127" style="edgeStyle=orthogonalEdgeStyle;rounded=0;orthogonalLoop=1;jettySize=auto;html=1;exitX=0.5;exitY=0;exitDx=0;exitDy=0;strokeWidth=3;endArrow=none;startFill=1;startArrow=classic;strokeColor=#00FF00;" parent="1" edge="1">
          <mxGeometry relative="1" as="geometry">
            <mxPoint x="1513" y="-200" as="targetPoint" />
            <mxPoint x="1513" y="-140" as="sourcePoint" />
          </mxGeometry>
        </mxCell>
        <mxCell id="0S-3l-w-nzVZIsKJXBlZ-128" value="&lt;b&gt;CLK&lt;/b&gt;" style="edgeLabel;html=1;align=center;verticalAlign=middle;resizable=0;points=[];" parent="0S-3l-w-nzVZIsKJXBlZ-127" vertex="1" connectable="0">
          <mxGeometry x="0.106" y="1" relative="1" as="geometry">
            <mxPoint as="offset" />
          </mxGeometry>
        </mxCell>
        <mxCell id="0S-3l-w-nzVZIsKJXBlZ-129" value="" style="endArrow=none;html=1;rounded=0;exitX=0.25;exitY=0;exitDx=0;exitDy=0;entryX=0.5;entryY=0.125;entryDx=0;entryDy=0;entryPerimeter=0;shadow=1;fillColor=#fff2cc;strokeColor=#d6b656;strokeWidth=3;" parent="1" edge="1">
          <mxGeometry width="50" height="50" relative="1" as="geometry">
            <mxPoint x="1503" y="-140" as="sourcePoint" />
            <mxPoint x="1513" y="-130" as="targetPoint" />
          </mxGeometry>
        </mxCell>
        <mxCell id="0S-3l-w-nzVZIsKJXBlZ-130" value="" style="endArrow=none;html=1;rounded=0;exitX=0.25;exitY=0;exitDx=0;exitDy=0;entryX=0.75;entryY=0;entryDx=0;entryDy=0;shadow=1;fillColor=#fff2cc;strokeColor=#d6b656;strokeWidth=3;" parent="1" edge="1">
          <mxGeometry width="50" height="50" relative="1" as="geometry">
            <mxPoint x="1513" y="-130" as="sourcePoint" />
            <mxPoint x="1523" y="-140" as="targetPoint" />
          </mxGeometry>
        </mxCell>
        <mxCell id="0S-3l-w-nzVZIsKJXBlZ-132" value="&lt;font style=&quot;font-size: 18px;&quot;&gt;&lt;b&gt;EXECUTE&lt;/b&gt;&lt;/font&gt;" style="text;html=1;align=center;verticalAlign=middle;whiteSpace=wrap;rounded=0;fontColor=#990099;" parent="1" vertex="1">
          <mxGeometry x="1273" y="280" width="60" height="30" as="geometry" />
        </mxCell>
        <mxCell id="0S-3l-w-nzVZIsKJXBlZ-137" style="edgeStyle=orthogonalEdgeStyle;rounded=0;orthogonalLoop=1;jettySize=auto;html=1;exitX=0.5;exitY=0;exitDx=0;exitDy=0;strokeWidth=3;endArrow=none;startFill=1;startArrow=classic;strokeColor=#00FF00;" parent="1" edge="1">
          <mxGeometry relative="1" as="geometry">
            <mxPoint x="1673" y="-160" as="targetPoint" />
            <mxPoint x="1673" y="-100" as="sourcePoint" />
          </mxGeometry>
        </mxCell>
        <mxCell id="0S-3l-w-nzVZIsKJXBlZ-138" value="&lt;b&gt;CLK&lt;/b&gt;" style="edgeLabel;html=1;align=center;verticalAlign=middle;resizable=0;points=[];" parent="0S-3l-w-nzVZIsKJXBlZ-137" vertex="1" connectable="0">
          <mxGeometry x="0.106" y="1" relative="1" as="geometry">
            <mxPoint as="offset" />
          </mxGeometry>
        </mxCell>
        <mxCell id="0S-3l-w-nzVZIsKJXBlZ-139" value="" style="endArrow=none;html=1;rounded=0;exitX=0.25;exitY=0;exitDx=0;exitDy=0;entryX=0.5;entryY=0.125;entryDx=0;entryDy=0;entryPerimeter=0;shadow=1;fillColor=#fff2cc;strokeColor=#000000;strokeWidth=3;" parent="1" edge="1">
          <mxGeometry width="50" height="50" relative="1" as="geometry">
            <mxPoint x="1663" y="-100" as="sourcePoint" />
            <mxPoint x="1673" y="-90" as="targetPoint" />
          </mxGeometry>
        </mxCell>
        <mxCell id="0S-3l-w-nzVZIsKJXBlZ-140" value="" style="endArrow=none;html=1;rounded=0;exitX=0.25;exitY=0;exitDx=0;exitDy=0;entryX=0.75;entryY=0;entryDx=0;entryDy=0;shadow=1;fillColor=#fff2cc;strokeColor=#000000;strokeWidth=3;" parent="1" edge="1">
          <mxGeometry width="50" height="50" relative="1" as="geometry">
            <mxPoint x="1673" y="-90" as="sourcePoint" />
            <mxPoint x="1683" y="-100" as="targetPoint" />
          </mxGeometry>
        </mxCell>
        <mxCell id="0S-3l-w-nzVZIsKJXBlZ-149" style="edgeStyle=orthogonalEdgeStyle;rounded=0;orthogonalLoop=1;jettySize=auto;html=1;entryX=1.022;entryY=0.566;entryDx=0;entryDy=0;entryPerimeter=0;strokeWidth=3;endArrow=none;startFill=1;startArrow=classic;" parent="1" target="0S-3l-w-nzVZIsKJXBlZ-123" edge="1">
          <mxGeometry relative="1" as="geometry">
            <mxPoint x="1640" y="60" as="sourcePoint" />
            <Array as="points">
              <mxPoint x="1534" y="60" />
            </Array>
          </mxGeometry>
        </mxCell>
        <mxCell id="0S-3l-w-nzVZIsKJXBlZ-150" value="&lt;b&gt;WriteDataM&lt;/b&gt;" style="edgeLabel;html=1;align=center;verticalAlign=middle;resizable=0;points=[];" parent="0S-3l-w-nzVZIsKJXBlZ-149" vertex="1" connectable="0">
          <mxGeometry x="0.2833" y="1" relative="1" as="geometry">
            <mxPoint x="13" as="offset" />
          </mxGeometry>
        </mxCell>
        <mxCell id="0S-3l-w-nzVZIsKJXBlZ-151" value="&lt;b&gt;WD&lt;/b&gt;" style="edgeLabel;html=1;align=center;verticalAlign=middle;resizable=0;points=[];" parent="0S-3l-w-nzVZIsKJXBlZ-149" vertex="1" connectable="0">
          <mxGeometry x="-0.5936" y="1" relative="1" as="geometry">
            <mxPoint x="38" y="-1" as="offset" />
          </mxGeometry>
        </mxCell>
        <mxCell id="0S-3l-w-nzVZIsKJXBlZ-169" style="edgeStyle=orthogonalEdgeStyle;rounded=0;orthogonalLoop=1;jettySize=auto;html=1;exitX=1;exitY=0.25;exitDx=0;exitDy=0;entryX=0.493;entryY=1.068;entryDx=0;entryDy=0;strokeWidth=3;entryPerimeter=0;" parent="1" source="0S-3l-w-nzVZIsKJXBlZ-154" target="0S-3l-w-nzVZIsKJXBlZ-168" edge="1">
          <mxGeometry relative="1" as="geometry">
            <Array as="points">
              <mxPoint x="2013" y="-52" />
              <mxPoint x="2013" y="-21" />
            </Array>
          </mxGeometry>
        </mxCell>
        <mxCell id="0S-3l-w-nzVZIsKJXBlZ-170" value="&lt;b&gt;ReadDataW&lt;/b&gt;" style="edgeLabel;html=1;align=center;verticalAlign=middle;resizable=0;points=[];" parent="0S-3l-w-nzVZIsKJXBlZ-169" vertex="1" connectable="0">
          <mxGeometry x="-0.218" y="3" relative="1" as="geometry">
            <mxPoint x="-18" y="2" as="offset" />
          </mxGeometry>
        </mxCell>
        <mxCell id="0S-3l-w-nzVZIsKJXBlZ-171" value="&lt;b&gt;01&lt;/b&gt;" style="edgeLabel;html=1;align=center;verticalAlign=middle;resizable=0;points=[];" parent="0S-3l-w-nzVZIsKJXBlZ-169" vertex="1" connectable="0">
          <mxGeometry x="0.5498" y="-1" relative="1" as="geometry">
            <mxPoint x="44" as="offset" />
          </mxGeometry>
        </mxCell>
        <mxCell id="0S-3l-w-nzVZIsKJXBlZ-201" style="edgeStyle=orthogonalEdgeStyle;rounded=0;orthogonalLoop=1;jettySize=auto;html=1;exitX=1;exitY=1;exitDx=0;exitDy=0;strokeWidth=3;strokeColor=#B3B3B3;" parent="1" source="0S-3l-w-nzVZIsKJXBlZ-154" edge="1">
          <mxGeometry relative="1" as="geometry">
            <mxPoint x="766" y="-10" as="targetPoint" />
            <Array as="points">
              <mxPoint x="1933" y="190" />
              <mxPoint x="2010" y="190" />
              <mxPoint x="2010" y="280" />
              <mxPoint x="690" y="280" />
              <mxPoint x="690" y="-10" />
            </Array>
          </mxGeometry>
        </mxCell>
        <mxCell id="0S-3l-w-nzVZIsKJXBlZ-202" value="&lt;b&gt;RdW&lt;/b&gt;" style="edgeLabel;html=1;align=center;verticalAlign=middle;resizable=0;points=[];" parent="0S-3l-w-nzVZIsKJXBlZ-201" vertex="1" connectable="0">
          <mxGeometry x="-0.9422" y="-1" relative="1" as="geometry">
            <mxPoint x="-7" y="-1" as="offset" />
          </mxGeometry>
        </mxCell>
        <mxCell id="0S-3l-w-nzVZIsKJXBlZ-203" value="&lt;b&gt;A3&lt;/b&gt;" style="edgeLabel;html=1;align=center;verticalAlign=middle;resizable=0;points=[];" parent="0S-3l-w-nzVZIsKJXBlZ-201" vertex="1" connectable="0">
          <mxGeometry x="0.9648" relative="1" as="geometry">
            <mxPoint x="47" as="offset" />
          </mxGeometry>
        </mxCell>
        <mxCell id="0S-3l-w-nzVZIsKJXBlZ-154" value="&lt;b&gt;DFF&lt;/b&gt;" style="rounded=0;whiteSpace=wrap;html=1;sketch=1;curveFitting=1;jiggle=2;strokeWidth=3;fillColor=#fff2cc;strokeColor=#d6b656;" parent="1" vertex="1">
          <mxGeometry x="1893" y="-140" width="40" height="350" as="geometry" />
        </mxCell>
        <mxCell id="0S-3l-w-nzVZIsKJXBlZ-159" style="edgeStyle=orthogonalEdgeStyle;rounded=0;orthogonalLoop=1;jettySize=auto;html=1;exitX=0.5;exitY=0;exitDx=0;exitDy=0;strokeWidth=3;endArrow=none;startFill=1;startArrow=classic;strokeColor=#00FF00;" parent="1" edge="1">
          <mxGeometry relative="1" as="geometry">
            <mxPoint x="1913" y="-200" as="targetPoint" />
            <mxPoint x="1913" y="-140" as="sourcePoint" />
          </mxGeometry>
        </mxCell>
        <mxCell id="0S-3l-w-nzVZIsKJXBlZ-160" value="&lt;b&gt;CLK&lt;/b&gt;" style="edgeLabel;html=1;align=center;verticalAlign=middle;resizable=0;points=[];" parent="0S-3l-w-nzVZIsKJXBlZ-159" vertex="1" connectable="0">
          <mxGeometry x="0.106" y="1" relative="1" as="geometry">
            <mxPoint as="offset" />
          </mxGeometry>
        </mxCell>
        <mxCell id="0S-3l-w-nzVZIsKJXBlZ-161" value="" style="endArrow=none;html=1;rounded=0;exitX=0.25;exitY=0;exitDx=0;exitDy=0;entryX=0.5;entryY=0.125;entryDx=0;entryDy=0;entryPerimeter=0;shadow=1;fillColor=#fff2cc;strokeColor=#d6b656;strokeWidth=3;" parent="1" edge="1">
          <mxGeometry width="50" height="50" relative="1" as="geometry">
            <mxPoint x="1903" y="-140" as="sourcePoint" />
            <mxPoint x="1913" y="-130" as="targetPoint" />
          </mxGeometry>
        </mxCell>
        <mxCell id="0S-3l-w-nzVZIsKJXBlZ-162" value="" style="endArrow=none;html=1;rounded=0;exitX=0.25;exitY=0;exitDx=0;exitDy=0;entryX=0.75;entryY=0;entryDx=0;entryDy=0;shadow=1;fillColor=#fff2cc;strokeColor=#d6b656;strokeWidth=3;" parent="1" edge="1">
          <mxGeometry width="50" height="50" relative="1" as="geometry">
            <mxPoint x="1913" y="-130" as="sourcePoint" />
            <mxPoint x="1923" y="-140" as="targetPoint" />
          </mxGeometry>
        </mxCell>
        <mxCell id="0S-3l-w-nzVZIsKJXBlZ-185" value="&lt;font style=&quot;font-size: 18px;&quot;&gt;&lt;b&gt;MEMORY&lt;/b&gt;&lt;/font&gt;" style="text;html=1;align=center;verticalAlign=middle;whiteSpace=wrap;rounded=0;fontColor=#990099;" parent="1" vertex="1">
          <mxGeometry x="1683" y="280" width="60" height="30" as="geometry" />
        </mxCell>
        <mxCell id="0S-3l-w-nzVZIsKJXBlZ-187" value="&lt;font style=&quot;font-size: 18px;&quot;&gt;&lt;b&gt;WRITEBACK&lt;/b&gt;&lt;/font&gt;" style="text;html=1;align=center;verticalAlign=middle;whiteSpace=wrap;rounded=0;fontColor=#990099;" parent="1" vertex="1">
          <mxGeometry x="2043" y="280" width="60" height="30" as="geometry" />
        </mxCell>
        <mxCell id="0S-3l-w-nzVZIsKJXBlZ-188" value="" style="endArrow=none;html=1;rounded=0;" parent="1" edge="1">
          <mxGeometry width="50" height="50" relative="1" as="geometry">
            <mxPoint x="90" y="560" as="sourcePoint" />
            <mxPoint x="90" y="-760" as="targetPoint" />
          </mxGeometry>
        </mxCell>
        <mxCell id="0S-3l-w-nzVZIsKJXBlZ-189" value="" style="endArrow=none;html=1;rounded=0;" parent="1" edge="1">
          <mxGeometry width="50" height="50" relative="1" as="geometry">
            <mxPoint x="2220" y="560" as="sourcePoint" />
            <mxPoint x="2220" y="-760" as="targetPoint" />
          </mxGeometry>
        </mxCell>
        <mxCell id="0S-3l-w-nzVZIsKJXBlZ-190" value="" style="endArrow=none;html=1;rounded=0;" parent="1" edge="1">
          <mxGeometry width="50" height="50" relative="1" as="geometry">
            <mxPoint x="2220" y="-760" as="sourcePoint" />
            <mxPoint x="90" y="-760" as="targetPoint" />
          </mxGeometry>
        </mxCell>
        <mxCell id="0S-3l-w-nzVZIsKJXBlZ-191" value="" style="endArrow=none;html=1;rounded=0;" parent="1" edge="1">
          <mxGeometry width="50" height="50" relative="1" as="geometry">
            <mxPoint x="2220" y="560" as="sourcePoint" />
            <mxPoint x="90" y="560" as="targetPoint" />
          </mxGeometry>
        </mxCell>
        <mxCell id="5N_nwnFfnxtBeg_xK4KU-9" style="edgeStyle=orthogonalEdgeStyle;rounded=0;orthogonalLoop=1;jettySize=auto;html=1;exitX=1;exitY=0.5;exitDx=0;exitDy=0;strokeWidth=3;strokeColor=#0000FF;" parent="1" source="5N_nwnFfnxtBeg_xK4KU-1" target="5N_nwnFfnxtBeg_xK4KU-8" edge="1">
          <mxGeometry relative="1" as="geometry">
            <Array as="points">
              <mxPoint x="860" y="-390" />
            </Array>
          </mxGeometry>
        </mxCell>
        <mxCell id="5N_nwnFfnxtBeg_xK4KU-10" value="&lt;b&gt;ALUSrcD&lt;/b&gt;" style="edgeLabel;html=1;align=center;verticalAlign=middle;resizable=0;points=[];" parent="5N_nwnFfnxtBeg_xK4KU-9" vertex="1" connectable="0">
          <mxGeometry x="-0.3077" relative="1" as="geometry">
            <mxPoint x="48" as="offset" />
          </mxGeometry>
        </mxCell>
        <mxCell id="5N_nwnFfnxtBeg_xK4KU-11" style="edgeStyle=orthogonalEdgeStyle;rounded=0;orthogonalLoop=1;jettySize=auto;html=1;exitX=1;exitY=0.25;exitDx=0;exitDy=0;entryX=0;entryY=0.25;entryDx=0;entryDy=0;strokeWidth=3;strokeColor=#0000FF;" parent="1" source="5N_nwnFfnxtBeg_xK4KU-1" target="5N_nwnFfnxtBeg_xK4KU-8" edge="1">
          <mxGeometry relative="1" as="geometry">
            <Array as="points">
              <mxPoint x="930" y="-527" />
              <mxPoint x="930" y="-525" />
            </Array>
          </mxGeometry>
        </mxCell>
        <mxCell id="5N_nwnFfnxtBeg_xK4KU-18" value="&lt;b&gt;MemWriteD&lt;/b&gt;" style="edgeLabel;html=1;align=center;verticalAlign=middle;resizable=0;points=[];" parent="5N_nwnFfnxtBeg_xK4KU-11" vertex="1" connectable="0">
          <mxGeometry x="-0.4376" y="2" relative="1" as="geometry">
            <mxPoint x="30" as="offset" />
          </mxGeometry>
        </mxCell>
        <mxCell id="5N_nwnFfnxtBeg_xK4KU-6" style="edgeStyle=orthogonalEdgeStyle;rounded=0;orthogonalLoop=1;jettySize=auto;html=1;exitX=1;exitY=0.25;exitDx=0;exitDy=0;entryX=0.004;entryY=0.858;entryDx=0;entryDy=0;entryPerimeter=0;strokeWidth=3;" parent="1" source="0S-3l-w-nzVZIsKJXBlZ-24" target="5N_nwnFfnxtBeg_xK4KU-1" edge="1">
          <mxGeometry relative="1" as="geometry">
            <Array as="points">
              <mxPoint x="610" y="-70" />
              <mxPoint x="680" y="-70" />
              <mxPoint x="680" y="-327" />
            </Array>
          </mxGeometry>
        </mxCell>
        <mxCell id="5N_nwnFfnxtBeg_xK4KU-7" value="&lt;b&gt;funct7&lt;/b&gt;" style="edgeLabel;html=1;align=center;verticalAlign=middle;resizable=0;points=[];" parent="5N_nwnFfnxtBeg_xK4KU-6" vertex="1" connectable="0">
          <mxGeometry x="0.7584" relative="1" as="geometry">
            <mxPoint x="8" as="offset" />
          </mxGeometry>
        </mxCell>
        <mxCell id="5N_nwnFfnxtBeg_xK4KU-12" style="edgeStyle=orthogonalEdgeStyle;rounded=0;orthogonalLoop=1;jettySize=auto;html=1;exitX=1;exitY=0.25;exitDx=0;exitDy=0;strokeWidth=3;strokeColor=#0000FF;" parent="1" source="5N_nwnFfnxtBeg_xK4KU-1" edge="1">
          <mxGeometry relative="1" as="geometry">
            <mxPoint x="999" y="-570" as="targetPoint" />
            <Array as="points">
              <mxPoint x="860" y="-570" />
              <mxPoint x="999" y="-570" />
            </Array>
          </mxGeometry>
        </mxCell>
        <mxCell id="5N_nwnFfnxtBeg_xK4KU-13" value="&lt;b&gt;RegWriteD&lt;/b&gt;" style="edgeLabel;html=1;align=center;verticalAlign=middle;resizable=0;points=[];" parent="5N_nwnFfnxtBeg_xK4KU-12" vertex="1" connectable="0">
          <mxGeometry x="0.4427" relative="1" as="geometry">
            <mxPoint x="-23" as="offset" />
          </mxGeometry>
        </mxCell>
        <mxCell id="5N_nwnFfnxtBeg_xK4KU-14" style="edgeStyle=orthogonalEdgeStyle;rounded=0;orthogonalLoop=1;jettySize=auto;html=1;exitX=1;exitY=0.25;exitDx=0;exitDy=0;entryX=0.017;entryY=0.171;entryDx=0;entryDy=0;entryPerimeter=0;strokeWidth=3;strokeColor=#0000FF;" parent="1" source="5N_nwnFfnxtBeg_xK4KU-1" target="5N_nwnFfnxtBeg_xK4KU-8" edge="1">
          <mxGeometry relative="1" as="geometry">
            <Array as="points">
              <mxPoint x="860" y="-550" />
              <mxPoint x="998" y="-550" />
            </Array>
          </mxGeometry>
        </mxCell>
        <mxCell id="5N_nwnFfnxtBeg_xK4KU-17" value="&lt;b&gt;ResultSrcD&lt;/b&gt;" style="edgeLabel;html=1;align=center;verticalAlign=middle;resizable=0;points=[];" parent="5N_nwnFfnxtBeg_xK4KU-14" vertex="1" connectable="0">
          <mxGeometry x="0.1952" y="1" relative="1" as="geometry">
            <mxPoint x="-7" as="offset" />
          </mxGeometry>
        </mxCell>
        <mxCell id="5N_nwnFfnxtBeg_xK4KU-19" style="edgeStyle=orthogonalEdgeStyle;rounded=0;orthogonalLoop=1;jettySize=auto;html=1;exitX=1;exitY=0.5;exitDx=0;exitDy=0;strokeWidth=3;strokeColor=#0000FF;" parent="1" source="5N_nwnFfnxtBeg_xK4KU-1" edge="1">
          <mxGeometry relative="1" as="geometry">
            <mxPoint x="1001" y="-410" as="targetPoint" />
            <Array as="points">
              <mxPoint x="860" y="-410" />
              <mxPoint x="1001" y="-410" />
            </Array>
          </mxGeometry>
        </mxCell>
        <mxCell id="5N_nwnFfnxtBeg_xK4KU-20" value="&lt;b&gt;ALUControlD&lt;/b&gt;" style="edgeLabel;html=1;align=center;verticalAlign=middle;resizable=0;points=[];" parent="5N_nwnFfnxtBeg_xK4KU-19" vertex="1" connectable="0">
          <mxGeometry x="0.0047" y="1" relative="1" as="geometry">
            <mxPoint x="12" as="offset" />
          </mxGeometry>
        </mxCell>
        <mxCell id="5N_nwnFfnxtBeg_xK4KU-23" style="edgeStyle=orthogonalEdgeStyle;rounded=0;orthogonalLoop=1;jettySize=auto;html=1;exitX=1;exitY=0.5;exitDx=0;exitDy=0;strokeWidth=3;strokeColor=#0000FF;" parent="1" source="5N_nwnFfnxtBeg_xK4KU-1" edge="1">
          <mxGeometry relative="1" as="geometry">
            <mxPoint x="1001" y="-460" as="targetPoint" />
            <Array as="points">
              <mxPoint x="860" y="-460" />
              <mxPoint x="1001" y="-460" />
            </Array>
          </mxGeometry>
        </mxCell>
        <mxCell id="5N_nwnFfnxtBeg_xK4KU-24" value="&lt;b&gt;BranchD&lt;/b&gt;" style="edgeLabel;html=1;align=center;verticalAlign=middle;resizable=0;points=[];" parent="5N_nwnFfnxtBeg_xK4KU-23" vertex="1" connectable="0">
          <mxGeometry x="0.0228" relative="1" as="geometry">
            <mxPoint as="offset" />
          </mxGeometry>
        </mxCell>
        <mxCell id="5N_nwnFfnxtBeg_xK4KU-25" style="edgeStyle=orthogonalEdgeStyle;rounded=0;orthogonalLoop=1;jettySize=auto;html=1;exitX=1;exitY=0.5;exitDx=0;exitDy=0;strokeWidth=3;strokeColor=#0000FF;" parent="1" source="5N_nwnFfnxtBeg_xK4KU-1" edge="1">
          <mxGeometry relative="1" as="geometry">
            <mxPoint x="1000" y="-480" as="targetPoint" />
            <Array as="points">
              <mxPoint x="860" y="-480" />
              <mxPoint x="998" y="-480" />
            </Array>
          </mxGeometry>
        </mxCell>
        <mxCell id="5N_nwnFfnxtBeg_xK4KU-26" value="&lt;b&gt;JumpD&lt;/b&gt;" style="edgeLabel;html=1;align=center;verticalAlign=middle;resizable=0;points=[];" parent="5N_nwnFfnxtBeg_xK4KU-25" vertex="1" connectable="0">
          <mxGeometry x="-0.2573" y="2" relative="1" as="geometry">
            <mxPoint x="30" as="offset" />
          </mxGeometry>
        </mxCell>
        <mxCell id="5N_nwnFfnxtBeg_xK4KU-1" value="&lt;b&gt;&lt;font style=&quot;font-size: 16px;&quot;&gt;Control&lt;/font&gt;&lt;/b&gt;&lt;div&gt;&lt;b&gt;&lt;font style=&quot;font-size: 16px;&quot;&gt;Unit&lt;/font&gt;&lt;/b&gt;&lt;/div&gt;" style="rounded=1;whiteSpace=wrap;html=1;sketch=1;curveFitting=1;jiggle=2;fillColor=#dae8fc;strokeColor=#0000FF;strokeWidth=4;" parent="1" vertex="1">
          <mxGeometry x="740" y="-610" width="120" height="330" as="geometry" />
        </mxCell>
        <mxCell id="5N_nwnFfnxtBeg_xK4KU-28" style="edgeStyle=orthogonalEdgeStyle;rounded=0;orthogonalLoop=1;jettySize=auto;html=1;exitX=0.5;exitY=0;exitDx=0;exitDy=0;strokeWidth=3;endArrow=none;startFill=1;startArrow=classic;strokeColor=#00FF00;" parent="1" edge="1">
          <mxGeometry relative="1" as="geometry">
            <mxPoint x="1019.95" y="-665" as="targetPoint" />
            <mxPoint x="1019.95" y="-605" as="sourcePoint" />
          </mxGeometry>
        </mxCell>
        <mxCell id="5N_nwnFfnxtBeg_xK4KU-29" value="&lt;b&gt;CLK&lt;/b&gt;" style="edgeLabel;html=1;align=center;verticalAlign=middle;resizable=0;points=[];" parent="5N_nwnFfnxtBeg_xK4KU-28" vertex="1" connectable="0">
          <mxGeometry x="0.106" y="1" relative="1" as="geometry">
            <mxPoint as="offset" />
          </mxGeometry>
        </mxCell>
        <mxCell id="5N_nwnFfnxtBeg_xK4KU-32" value="&lt;b&gt;DFF&lt;/b&gt;" style="rounded=0;whiteSpace=wrap;html=1;fillColor=#dae8fc;strokeColor=#6c8ebf;sketch=1;curveFitting=1;jiggle=2;strokeWidth=3;" parent="1" vertex="1">
          <mxGeometry x="1493" y="-600" width="40" height="320" as="geometry" />
        </mxCell>
        <mxCell id="5N_nwnFfnxtBeg_xK4KU-33" style="edgeStyle=orthogonalEdgeStyle;rounded=0;orthogonalLoop=1;jettySize=auto;html=1;exitX=0.5;exitY=0;exitDx=0;exitDy=0;strokeWidth=3;endArrow=none;startFill=1;startArrow=classic;strokeColor=#00FF00;" parent="1" edge="1">
          <mxGeometry relative="1" as="geometry">
            <mxPoint x="1512.95" y="-660" as="targetPoint" />
            <mxPoint x="1512.95" y="-600" as="sourcePoint" />
          </mxGeometry>
        </mxCell>
        <mxCell id="5N_nwnFfnxtBeg_xK4KU-34" value="&lt;b&gt;CLK&lt;/b&gt;" style="edgeLabel;html=1;align=center;verticalAlign=middle;resizable=0;points=[];" parent="5N_nwnFfnxtBeg_xK4KU-33" vertex="1" connectable="0">
          <mxGeometry x="0.106" y="1" relative="1" as="geometry">
            <mxPoint as="offset" />
          </mxGeometry>
        </mxCell>
        <mxCell id="5N_nwnFfnxtBeg_xK4KU-35" value="" style="endArrow=none;html=1;rounded=0;exitX=0.25;exitY=0;exitDx=0;exitDy=0;entryX=0.5;entryY=0.125;entryDx=0;entryDy=0;entryPerimeter=0;shadow=1;fillColor=#fff2cc;strokeColor=#6C8EBF;strokeWidth=3;" parent="1" source="5N_nwnFfnxtBeg_xK4KU-32" edge="1">
          <mxGeometry width="50" height="50" relative="1" as="geometry">
            <mxPoint x="1503" y="-595" as="sourcePoint" />
            <mxPoint x="1513" y="-585" as="targetPoint" />
          </mxGeometry>
        </mxCell>
        <mxCell id="5N_nwnFfnxtBeg_xK4KU-36" value="" style="endArrow=none;html=1;rounded=0;exitX=0.25;exitY=0;exitDx=0;exitDy=0;entryX=0.75;entryY=0;entryDx=0;entryDy=0;shadow=1;fillColor=#fff2cc;strokeColor=#6C8EBF;strokeWidth=3;" parent="1" target="5N_nwnFfnxtBeg_xK4KU-32" edge="1">
          <mxGeometry width="50" height="50" relative="1" as="geometry">
            <mxPoint x="1513" y="-585" as="sourcePoint" />
            <mxPoint x="1523" y="-595" as="targetPoint" />
          </mxGeometry>
        </mxCell>
        <mxCell id="5N_nwnFfnxtBeg_xK4KU-37" value="&lt;b&gt;DFF&lt;/b&gt;" style="rounded=0;whiteSpace=wrap;html=1;fillColor=#dae8fc;strokeColor=#6c8ebf;sketch=1;curveFitting=1;jiggle=2;strokeWidth=3;" parent="1" vertex="1">
          <mxGeometry x="1893" y="-600" width="40" height="320" as="geometry" />
        </mxCell>
        <mxCell id="5N_nwnFfnxtBeg_xK4KU-38" style="edgeStyle=orthogonalEdgeStyle;rounded=0;orthogonalLoop=1;jettySize=auto;html=1;exitX=0.5;exitY=0;exitDx=0;exitDy=0;strokeWidth=3;endArrow=none;startFill=1;startArrow=classic;strokeColor=#00FF00;" parent="1" edge="1">
          <mxGeometry relative="1" as="geometry">
            <mxPoint x="1912.95" y="-660" as="targetPoint" />
            <mxPoint x="1912.95" y="-600" as="sourcePoint" />
          </mxGeometry>
        </mxCell>
        <mxCell id="5N_nwnFfnxtBeg_xK4KU-39" value="&lt;b&gt;CLK&lt;/b&gt;" style="edgeLabel;html=1;align=center;verticalAlign=middle;resizable=0;points=[];" parent="5N_nwnFfnxtBeg_xK4KU-38" vertex="1" connectable="0">
          <mxGeometry x="0.106" y="1" relative="1" as="geometry">
            <mxPoint as="offset" />
          </mxGeometry>
        </mxCell>
        <mxCell id="5N_nwnFfnxtBeg_xK4KU-40" value="" style="endArrow=none;html=1;rounded=0;exitX=0.25;exitY=0;exitDx=0;exitDy=0;entryX=0.5;entryY=0.125;entryDx=0;entryDy=0;entryPerimeter=0;shadow=1;fillColor=#fff2cc;strokeColor=#6C8EBF;strokeWidth=3;" parent="1" source="5N_nwnFfnxtBeg_xK4KU-37" edge="1">
          <mxGeometry width="50" height="50" relative="1" as="geometry">
            <mxPoint x="1903" y="-595" as="sourcePoint" />
            <mxPoint x="1913" y="-585" as="targetPoint" />
          </mxGeometry>
        </mxCell>
        <mxCell id="5N_nwnFfnxtBeg_xK4KU-41" value="" style="endArrow=none;html=1;rounded=0;exitX=0.25;exitY=0;exitDx=0;exitDy=0;entryX=0.75;entryY=0;entryDx=0;entryDy=0;shadow=1;fillColor=#fff2cc;strokeColor=#6C8EBF;strokeWidth=3;" parent="1" target="5N_nwnFfnxtBeg_xK4KU-37" edge="1">
          <mxGeometry width="50" height="50" relative="1" as="geometry">
            <mxPoint x="1913" y="-585" as="sourcePoint" />
            <mxPoint x="1923" y="-595" as="targetPoint" />
          </mxGeometry>
        </mxCell>
        <mxCell id="0S-3l-w-nzVZIsKJXBlZ-145" style="edgeStyle=orthogonalEdgeStyle;rounded=0;orthogonalLoop=1;jettySize=auto;html=1;exitX=0.75;exitY=0;exitDx=0;exitDy=0;strokeWidth=3;strokeColor=#0000FF;endArrow=none;startFill=1;startArrow=classic;entryX=1.009;entryY=0.229;entryDx=0;entryDy=0;entryPerimeter=0;" parent="1" source="0S-3l-w-nzVZIsKJXBlZ-133" target="5N_nwnFfnxtBeg_xK4KU-32" edge="1">
          <mxGeometry relative="1" as="geometry">
            <mxPoint x="1480" y="-490" as="targetPoint" />
          </mxGeometry>
        </mxCell>
        <mxCell id="0S-3l-w-nzVZIsKJXBlZ-146" value="&lt;b&gt;MemWriteM&lt;/b&gt;" style="edgeLabel;html=1;align=center;verticalAlign=middle;resizable=0;points=[];" parent="0S-3l-w-nzVZIsKJXBlZ-145" vertex="1" connectable="0">
          <mxGeometry x="0.1939" y="2" relative="1" as="geometry">
            <mxPoint x="-93" y="-47" as="offset" />
          </mxGeometry>
        </mxCell>
        <mxCell id="5N_nwnFfnxtBeg_xK4KU-61" value="&lt;b&gt;MemWriteM&lt;/b&gt;" style="edgeLabel;html=1;align=center;verticalAlign=middle;resizable=0;points=[];" parent="0S-3l-w-nzVZIsKJXBlZ-145" vertex="1" connectable="0">
          <mxGeometry x="-0.8299" y="1" relative="1" as="geometry">
            <mxPoint as="offset" />
          </mxGeometry>
        </mxCell>
        <mxCell id="5N_nwnFfnxtBeg_xK4KU-66" value="&lt;b&gt;WE&lt;/b&gt;" style="edgeLabel;html=1;align=center;verticalAlign=middle;resizable=0;points=[];" parent="0S-3l-w-nzVZIsKJXBlZ-145" vertex="1" connectable="0">
          <mxGeometry x="-0.9008" y="-1" relative="1" as="geometry">
            <mxPoint y="42" as="offset" />
          </mxGeometry>
        </mxCell>
        <mxCell id="5N_nwnFfnxtBeg_xK4KU-53" value="" style="shape=delay;whiteSpace=wrap;html=1;rotation=-180;shadow=0;strokeWidth=3;fillColor=#f5f5f5;strokeColor=#666666;fontColor=#333333;fillStyle=hatch;" parent="1" vertex="1">
          <mxGeometry x="1120" y="-733" width="40" height="40" as="geometry" />
        </mxCell>
        <mxCell id="5N_nwnFfnxtBeg_xK4KU-56" value="" style="shape=xor;whiteSpace=wrap;html=1;rotation=-180;strokeWidth=3;fillColor=#f5f5f5;fontColor=#333333;strokeColor=#666666;fillStyle=hatch;" parent="1" vertex="1">
          <mxGeometry x="1040" y="-730" width="50" height="60" as="geometry" />
        </mxCell>
        <mxCell id="5N_nwnFfnxtBeg_xK4KU-57" style="edgeStyle=orthogonalEdgeStyle;rounded=0;orthogonalLoop=1;jettySize=auto;html=1;exitX=1;exitY=0.5;exitDx=0;exitDy=0;entryX=0.175;entryY=0.75;entryDx=0;entryDy=0;entryPerimeter=0;strokeWidth=3;" parent="1" source="5N_nwnFfnxtBeg_xK4KU-53" target="5N_nwnFfnxtBeg_xK4KU-56" edge="1">
          <mxGeometry relative="1" as="geometry">
            <Array as="points">
              <mxPoint x="1120" y="-715" />
            </Array>
          </mxGeometry>
        </mxCell>
        <mxCell id="5N_nwnFfnxtBeg_xK4KU-58" style="edgeStyle=orthogonalEdgeStyle;rounded=0;orthogonalLoop=1;jettySize=auto;html=1;exitX=1;exitY=0.5;exitDx=0;exitDy=0;entryX=0.175;entryY=0.25;entryDx=0;entryDy=0;entryPerimeter=0;strokeWidth=3;strokeColor=#3399FF;" parent="1" source="5N_nwnFfnxtBeg_xK4KU-8" target="5N_nwnFfnxtBeg_xK4KU-56" edge="1">
          <mxGeometry relative="1" as="geometry">
            <Array as="points">
              <mxPoint x="1040" y="-480" />
              <mxPoint x="1180" y="-480" />
              <mxPoint x="1180" y="-685" />
            </Array>
          </mxGeometry>
        </mxCell>
        <mxCell id="5N_nwnFfnxtBeg_xK4KU-59" value="&lt;b&gt;JumpE&lt;/b&gt;" style="edgeLabel;html=1;align=center;verticalAlign=middle;resizable=0;points=[];" parent="5N_nwnFfnxtBeg_xK4KU-58" vertex="1" connectable="0">
          <mxGeometry x="-0.6012" y="1" relative="1" as="geometry">
            <mxPoint x="-11" as="offset" />
          </mxGeometry>
        </mxCell>
        <mxCell id="5N_nwnFfnxtBeg_xK4KU-65" value="" style="ellipse;whiteSpace=wrap;html=1;aspect=fixed;strokeWidth=2;fillColor=#f5f5f5;fontColor=#333333;strokeColor=#000000;" parent="1" vertex="1">
          <mxGeometry x="804" y="-130" width="5" height="5" as="geometry" />
        </mxCell>
        <mxCell id="0S-3l-w-nzVZIsKJXBlZ-52" style="edgeStyle=orthogonalEdgeStyle;rounded=0;orthogonalLoop=1;jettySize=auto;html=1;exitX=0.5;exitY=0;exitDx=0;exitDy=0;strokeWidth=3;endArrow=none;startFill=1;startArrow=classic;strokeColor=#00FF00;" parent="1" edge="1">
          <mxGeometry relative="1" as="geometry">
            <mxPoint x="807.26" y="-190" as="targetPoint" />
            <mxPoint x="807.26" y="-130" as="sourcePoint" />
            <Array as="points">
              <mxPoint x="807.26" y="-160" />
              <mxPoint x="807.26" y="-160" />
            </Array>
          </mxGeometry>
        </mxCell>
        <mxCell id="0S-3l-w-nzVZIsKJXBlZ-53" value="&lt;b&gt;CLK&lt;/b&gt;" style="edgeLabel;html=1;align=center;verticalAlign=middle;resizable=0;points=[];" parent="0S-3l-w-nzVZIsKJXBlZ-52" vertex="1" connectable="0">
          <mxGeometry x="0.106" y="1" relative="1" as="geometry">
            <mxPoint as="offset" />
          </mxGeometry>
        </mxCell>
        <mxCell id="5N_nwnFfnxtBeg_xK4KU-42" style="edgeStyle=orthogonalEdgeStyle;rounded=0;orthogonalLoop=1;jettySize=auto;html=1;exitX=1;exitY=0.25;exitDx=0;exitDy=0;entryX=-0.075;entryY=0.074;entryDx=0;entryDy=0;entryPerimeter=0;strokeWidth=3;strokeColor=#0000FF;" parent="1" source="5N_nwnFfnxtBeg_xK4KU-8" target="5N_nwnFfnxtBeg_xK4KU-32" edge="1">
          <mxGeometry relative="1" as="geometry">
            <Array as="points">
              <mxPoint x="1040" y="-576" />
            </Array>
          </mxGeometry>
        </mxCell>
        <mxCell id="5N_nwnFfnxtBeg_xK4KU-43" value="&lt;b&gt;RegWriteE&lt;/b&gt;" style="edgeLabel;html=1;align=center;verticalAlign=middle;resizable=0;points=[];" parent="5N_nwnFfnxtBeg_xK4KU-42" vertex="1" connectable="0">
          <mxGeometry x="-0.1821" y="-1" relative="1" as="geometry">
            <mxPoint x="-94" as="offset" />
          </mxGeometry>
        </mxCell>
        <mxCell id="5N_nwnFfnxtBeg_xK4KU-46" style="edgeStyle=orthogonalEdgeStyle;rounded=0;orthogonalLoop=1;jettySize=auto;html=1;exitX=1;exitY=0.25;exitDx=0;exitDy=0;entryX=-0.065;entryY=0.233;entryDx=0;entryDy=0;entryPerimeter=0;strokeWidth=3;strokeColor=#0000FF;" parent="1" source="5N_nwnFfnxtBeg_xK4KU-8" target="5N_nwnFfnxtBeg_xK4KU-32" edge="1">
          <mxGeometry relative="1" as="geometry" />
        </mxCell>
        <mxCell id="5N_nwnFfnxtBeg_xK4KU-47" value="&lt;b&gt;MemWriteE&lt;/b&gt;" style="edgeLabel;html=1;align=center;verticalAlign=middle;resizable=0;points=[];" parent="5N_nwnFfnxtBeg_xK4KU-46" vertex="1" connectable="0">
          <mxGeometry x="-0.6162" y="-1" relative="1" as="geometry">
            <mxPoint x="-27" as="offset" />
          </mxGeometry>
        </mxCell>
        <mxCell id="5N_nwnFfnxtBeg_xK4KU-67" value="" style="endArrow=none;html=1;rounded=0;exitX=0.168;exitY=0.006;exitDx=0;exitDy=0;exitPerimeter=0;strokeWidth=3;" parent="1" source="0S-3l-w-nzVZIsKJXBlZ-39" edge="1">
          <mxGeometry width="50" height="50" relative="1" as="geometry">
            <mxPoint x="827.5" y="-100" as="sourcePoint" />
            <mxPoint x="807.5" y="-100" as="targetPoint" />
          </mxGeometry>
        </mxCell>
        <mxCell id="5N_nwnFfnxtBeg_xK4KU-68" value="" style="endArrow=none;html=1;rounded=0;entryX=0.384;entryY=0.007;entryDx=0;entryDy=0;entryPerimeter=0;strokeWidth=3;" parent="1" target="0S-3l-w-nzVZIsKJXBlZ-39" edge="1">
          <mxGeometry width="50" height="50" relative="1" as="geometry">
            <mxPoint x="807.5" y="-100" as="sourcePoint" />
            <mxPoint x="821" y="-81" as="targetPoint" />
          </mxGeometry>
        </mxCell>
        <mxCell id="zPqDqTLsyCB9AAuiYfrW-24" style="edgeStyle=orthogonalEdgeStyle;rounded=0;orthogonalLoop=1;jettySize=auto;html=1;exitX=0.5;exitY=0;exitDx=0;exitDy=0;entryX=1;entryY=0.5;entryDx=0;entryDy=0;strokeWidth=3;strokeColor=#00CC66;" parent="1" source="zPqDqTLsyCB9AAuiYfrW-1" target="zPqDqTLsyCB9AAuiYfrW-11" edge="1">
          <mxGeometry relative="1" as="geometry">
            <Array as="points">
              <mxPoint x="1165" y="440" />
            </Array>
          </mxGeometry>
        </mxCell>
        <mxCell id="zPqDqTLsyCB9AAuiYfrW-25" value="&lt;b&gt;ForwardBE&lt;/b&gt;" style="edgeLabel;html=1;align=center;verticalAlign=middle;resizable=0;points=[];" parent="zPqDqTLsyCB9AAuiYfrW-24" vertex="1" connectable="0">
          <mxGeometry x="-0.746" y="3" relative="1" as="geometry">
            <mxPoint x="29" y="-23" as="offset" />
          </mxGeometry>
        </mxCell>
        <mxCell id="zPqDqTLsyCB9AAuiYfrW-26" style="edgeStyle=orthogonalEdgeStyle;rounded=0;orthogonalLoop=1;jettySize=auto;html=1;exitX=0.5;exitY=0;exitDx=0;exitDy=0;strokeWidth=3;strokeColor=#00CC66;entryX=1;entryY=0.5;entryDx=0;entryDy=0;" parent="1" source="zPqDqTLsyCB9AAuiYfrW-1" target="zPqDqTLsyCB9AAuiYfrW-7" edge="1">
          <mxGeometry relative="1" as="geometry">
            <Array as="points">
              <mxPoint x="1120" y="440" />
              <mxPoint x="1120" y="-70" />
              <mxPoint x="1165" y="-70" />
            </Array>
          </mxGeometry>
        </mxCell>
        <mxCell id="zPqDqTLsyCB9AAuiYfrW-27" value="&lt;b&gt;ForwardAE&lt;/b&gt;" style="edgeLabel;html=1;align=center;verticalAlign=middle;resizable=0;points=[];" parent="zPqDqTLsyCB9AAuiYfrW-26" vertex="1" connectable="0">
          <mxGeometry x="-0.6258" relative="1" as="geometry">
            <mxPoint x="10" y="15" as="offset" />
          </mxGeometry>
        </mxCell>
        <mxCell id="zPqDqTLsyCB9AAuiYfrW-8" style="edgeStyle=orthogonalEdgeStyle;rounded=0;orthogonalLoop=1;jettySize=auto;html=1;exitX=0.5;exitY=0;exitDx=0;exitDy=0;entryX=0.25;entryY=1;entryDx=0;entryDy=0;strokeWidth=3;" parent="1" source="zPqDqTLsyCB9AAuiYfrW-7" target="0S-3l-w-nzVZIsKJXBlZ-93" edge="1">
          <mxGeometry relative="1" as="geometry">
            <Array as="points">
              <mxPoint x="1210" y="-140" />
              <mxPoint x="1210" y="-84" />
            </Array>
          </mxGeometry>
        </mxCell>
        <mxCell id="zPqDqTLsyCB9AAuiYfrW-9" value="&lt;b&gt;SrcAE&lt;/b&gt;" style="edgeLabel;html=1;align=center;verticalAlign=middle;resizable=0;points=[];" parent="zPqDqTLsyCB9AAuiYfrW-8" vertex="1" connectable="0">
          <mxGeometry x="0.7246" relative="1" as="geometry">
            <mxPoint x="-16" as="offset" />
          </mxGeometry>
        </mxCell>
        <mxCell id="0S-3l-w-nzVZIsKJXBlZ-103" style="edgeStyle=orthogonalEdgeStyle;rounded=0;orthogonalLoop=1;jettySize=auto;html=1;exitX=0;exitY=0.5;exitDx=0;exitDy=0;strokeWidth=3;strokeColor=#0000FF;endArrow=none;startFill=1;startArrow=classic;entryX=0.999;entryY=0.673;entryDx=0;entryDy=0;entryPerimeter=0;" parent="1" source="0S-3l-w-nzVZIsKJXBlZ-99" target="5N_nwnFfnxtBeg_xK4KU-8" edge="1">
          <mxGeometry relative="1" as="geometry">
            <mxPoint x="1110" y="-180" as="targetPoint" />
            <Array as="points">
              <mxPoint x="1243" y="-390" />
            </Array>
          </mxGeometry>
        </mxCell>
        <mxCell id="0S-3l-w-nzVZIsKJXBlZ-104" value="&lt;b&gt;ALUSrcE&lt;/b&gt;" style="edgeLabel;html=1;align=center;verticalAlign=middle;resizable=0;points=[];" parent="0S-3l-w-nzVZIsKJXBlZ-103" vertex="1" connectable="0">
          <mxGeometry x="0.5029" y="3" relative="1" as="geometry">
            <mxPoint x="-75" y="-3" as="offset" />
          </mxGeometry>
        </mxCell>
        <mxCell id="5N_nwnFfnxtBeg_xK4KU-63" value="&lt;b&gt;ALUSrcE&lt;/b&gt;" style="edgeLabel;html=1;align=center;verticalAlign=middle;resizable=0;points=[];" parent="0S-3l-w-nzVZIsKJXBlZ-103" vertex="1" connectable="0">
          <mxGeometry x="-0.7377" relative="1" as="geometry">
            <mxPoint y="-16" as="offset" />
          </mxGeometry>
        </mxCell>
        <mxCell id="0S-3l-w-nzVZIsKJXBlZ-97" style="edgeStyle=orthogonalEdgeStyle;rounded=0;orthogonalLoop=1;jettySize=auto;html=1;exitX=1;exitY=0.25;exitDx=0;exitDy=0;strokeWidth=3;entryX=0.25;entryY=1;entryDx=0;entryDy=0;" parent="1" source="0S-3l-w-nzVZIsKJXBlZ-77" target="zPqDqTLsyCB9AAuiYfrW-11" edge="1">
          <mxGeometry relative="1" as="geometry">
            <mxPoint x="1213" y="-40" as="targetPoint" />
            <Array as="points">
              <mxPoint x="1040" y="-35" />
            </Array>
            <mxPoint x="1103" y="-52.5" as="sourcePoint" />
          </mxGeometry>
        </mxCell>
        <mxCell id="0S-3l-w-nzVZIsKJXBlZ-98" value="&lt;b&gt;RD2E&lt;/b&gt;" style="edgeLabel;html=1;align=center;verticalAlign=middle;resizable=0;points=[];" parent="0S-3l-w-nzVZIsKJXBlZ-97" vertex="1" connectable="0">
          <mxGeometry x="-0.3468" relative="1" as="geometry">
            <mxPoint x="19" as="offset" />
          </mxGeometry>
        </mxCell>
        <mxCell id="0S-3l-w-nzVZIsKJXBlZ-100" value="&lt;b&gt;00&lt;/b&gt;" style="edgeLabel;html=1;align=center;verticalAlign=middle;resizable=0;points=[];" parent="0S-3l-w-nzVZIsKJXBlZ-97" vertex="1" connectable="0">
          <mxGeometry x="0.4784" y="1" relative="1" as="geometry">
            <mxPoint x="39" y="3" as="offset" />
          </mxGeometry>
        </mxCell>
        <mxCell id="0S-3l-w-nzVZIsKJXBlZ-58" style="edgeStyle=orthogonalEdgeStyle;rounded=0;orthogonalLoop=1;jettySize=auto;html=1;exitX=1;exitY=0.25;exitDx=0;exitDy=0;entryX=0;entryY=0.5;entryDx=0;entryDy=0;strokeWidth=3;" parent="1" source="0S-3l-w-nzVZIsKJXBlZ-24" target="0S-3l-w-nzVZIsKJXBlZ-56" edge="1">
          <mxGeometry relative="1" as="geometry">
            <Array as="points">
              <mxPoint x="610" y="-70" />
              <mxPoint x="680" y="-70" />
              <mxPoint x="680" y="110" />
            </Array>
          </mxGeometry>
        </mxCell>
        <mxCell id="0S-3l-w-nzVZIsKJXBlZ-59" value="&lt;b&gt;Imm&lt;/b&gt;" style="edgeLabel;html=1;align=center;verticalAlign=middle;resizable=0;points=[];" parent="0S-3l-w-nzVZIsKJXBlZ-58" vertex="1" connectable="0">
          <mxGeometry x="0.778" y="-1" relative="1" as="geometry">
            <mxPoint x="9" y="-1" as="offset" />
          </mxGeometry>
        </mxCell>
        <mxCell id="zPqDqTLsyCB9AAuiYfrW-45" style="edgeStyle=orthogonalEdgeStyle;rounded=0;orthogonalLoop=1;jettySize=auto;html=1;exitX=1;exitY=0.25;exitDx=0;exitDy=0;entryX=0;entryY=0.857;entryDx=0;entryDy=0;strokeWidth=3;entryPerimeter=0;" parent="1" source="0S-3l-w-nzVZIsKJXBlZ-24" target="0S-3l-w-nzVZIsKJXBlZ-77" edge="1">
          <mxGeometry relative="1" as="geometry">
            <Array as="points">
              <mxPoint x="610" y="-70" />
              <mxPoint x="680" y="-70" />
              <mxPoint x="680" y="190" />
              <mxPoint x="960" y="190" />
              <mxPoint x="960" y="160" />
            </Array>
          </mxGeometry>
        </mxCell>
        <mxCell id="zPqDqTLsyCB9AAuiYfrW-46" value="&lt;b&gt;Rs1D&lt;/b&gt;" style="edgeLabel;html=1;align=center;verticalAlign=middle;resizable=0;points=[];" parent="zPqDqTLsyCB9AAuiYfrW-45" vertex="1" connectable="0">
          <mxGeometry x="0.315" y="4" relative="1" as="geometry">
            <mxPoint x="131" y="4" as="offset" />
          </mxGeometry>
        </mxCell>
        <mxCell id="0S-3l-w-nzVZIsKJXBlZ-134" style="edgeStyle=orthogonalEdgeStyle;rounded=0;orthogonalLoop=1;jettySize=auto;html=1;exitX=1;exitY=0.25;exitDx=0;exitDy=0;strokeWidth=3;entryX=-0.002;entryY=0.226;entryDx=0;entryDy=0;entryPerimeter=0;" parent="1" source="0S-3l-w-nzVZIsKJXBlZ-123" target="0S-3l-w-nzVZIsKJXBlZ-133" edge="1">
          <mxGeometry relative="1" as="geometry">
            <mxPoint x="1630" y="-50" as="targetPoint" />
            <Array as="points">
              <mxPoint x="1533" y="-55" />
              <mxPoint x="1643" y="-55" />
            </Array>
          </mxGeometry>
        </mxCell>
        <mxCell id="0S-3l-w-nzVZIsKJXBlZ-135" value="&lt;b&gt;ALUResultM&lt;/b&gt;" style="edgeLabel;html=1;align=center;verticalAlign=middle;resizable=0;points=[];" parent="0S-3l-w-nzVZIsKJXBlZ-134" vertex="1" connectable="0">
          <mxGeometry x="-0.3708" y="-1" relative="1" as="geometry">
            <mxPoint x="15" y="-1" as="offset" />
          </mxGeometry>
        </mxCell>
        <mxCell id="0S-3l-w-nzVZIsKJXBlZ-136" value="&lt;b&gt;A&lt;/b&gt;" style="edgeLabel;html=1;align=center;verticalAlign=middle;resizable=0;points=[];" parent="0S-3l-w-nzVZIsKJXBlZ-134" vertex="1" connectable="0">
          <mxGeometry x="0.5683" y="-1" relative="1" as="geometry">
            <mxPoint x="34" as="offset" />
          </mxGeometry>
        </mxCell>
        <mxCell id="0S-3l-w-nzVZIsKJXBlZ-105" style="edgeStyle=orthogonalEdgeStyle;rounded=0;orthogonalLoop=1;jettySize=auto;html=1;exitX=0.75;exitY=1;exitDx=0;exitDy=0;entryX=0.967;entryY=0.633;entryDx=0;entryDy=0;entryPerimeter=0;strokeWidth=3;endArrow=none;startFill=1;startArrow=classic;" parent="1" source="0S-3l-w-nzVZIsKJXBlZ-99" target="0S-3l-w-nzVZIsKJXBlZ-77" edge="1">
          <mxGeometry relative="1" as="geometry">
            <Array as="points">
              <mxPoint x="1200" y="15" />
              <mxPoint x="1200" y="80" />
              <mxPoint x="1039" y="80" />
            </Array>
            <mxPoint x="1100" y="80.5" as="targetPoint" />
          </mxGeometry>
        </mxCell>
        <mxCell id="0S-3l-w-nzVZIsKJXBlZ-107" value="&lt;b&gt;1&lt;/b&gt;" style="edgeLabel;html=1;align=center;verticalAlign=middle;resizable=0;points=[];" parent="0S-3l-w-nzVZIsKJXBlZ-105" vertex="1" connectable="0">
          <mxGeometry x="-0.7871" y="1" relative="1" as="geometry">
            <mxPoint x="29" y="-4" as="offset" />
          </mxGeometry>
        </mxCell>
        <mxCell id="0S-3l-w-nzVZIsKJXBlZ-106" value="&lt;b&gt;ImmExtE&lt;/b&gt;" style="edgeLabel;html=1;align=center;verticalAlign=middle;resizable=0;points=[];" parent="0S-3l-w-nzVZIsKJXBlZ-105" vertex="1" connectable="0">
          <mxGeometry x="0.7031" y="-2" relative="1" as="geometry">
            <mxPoint x="2" y="2" as="offset" />
          </mxGeometry>
        </mxCell>
        <mxCell id="0S-3l-w-nzVZIsKJXBlZ-125" style="edgeStyle=orthogonalEdgeStyle;rounded=0;orthogonalLoop=1;jettySize=auto;html=1;exitX=1;exitY=1;exitDx=0;exitDy=0;entryX=0.005;entryY=0.811;entryDx=0;entryDy=0;entryPerimeter=0;strokeWidth=3;" parent="1" source="0S-3l-w-nzVZIsKJXBlZ-77" target="0S-3l-w-nzVZIsKJXBlZ-123" edge="1">
          <mxGeometry relative="1" as="geometry">
            <Array as="points">
              <mxPoint x="1040" y="120" />
              <mxPoint x="1180" y="120" />
              <mxPoint x="1180" y="220" />
              <mxPoint x="1413" y="220" />
              <mxPoint x="1413" y="144" />
            </Array>
            <mxPoint x="1103" y="210" as="sourcePoint" />
          </mxGeometry>
        </mxCell>
        <mxCell id="0S-3l-w-nzVZIsKJXBlZ-126" value="&lt;b&gt;PCPlus4E&lt;/b&gt;" style="edgeLabel;html=1;align=center;verticalAlign=middle;resizable=0;points=[];" parent="0S-3l-w-nzVZIsKJXBlZ-125" vertex="1" connectable="0">
          <mxGeometry x="-0.7348" relative="1" as="geometry">
            <mxPoint x="35" as="offset" />
          </mxGeometry>
        </mxCell>
        <mxCell id="0S-3l-w-nzVZIsKJXBlZ-181" style="edgeStyle=orthogonalEdgeStyle;rounded=0;orthogonalLoop=1;jettySize=auto;html=1;exitX=0.5;exitY=0;exitDx=0;exitDy=0;entryX=0;entryY=0.75;entryDx=0;entryDy=0;strokeWidth=3;strokeColor=#666666;" parent="1" source="0S-3l-w-nzVZIsKJXBlZ-168" target="0S-3l-w-nzVZIsKJXBlZ-39" edge="1">
          <mxGeometry relative="1" as="geometry">
            <Array as="points">
              <mxPoint x="2190" y="-20" />
              <mxPoint x="2190" y="270" />
              <mxPoint x="700" y="270" />
              <mxPoint x="700" y="15" />
            </Array>
          </mxGeometry>
        </mxCell>
        <mxCell id="0S-3l-w-nzVZIsKJXBlZ-182" value="&lt;b&gt;WD3&lt;/b&gt;" style="edgeLabel;html=1;align=center;verticalAlign=middle;resizable=0;points=[];" parent="0S-3l-w-nzVZIsKJXBlZ-181" vertex="1" connectable="0">
          <mxGeometry x="0.6777" y="-2" relative="1" as="geometry">
            <mxPoint x="56" y="-254" as="offset" />
          </mxGeometry>
        </mxCell>
        <mxCell id="0S-3l-w-nzVZIsKJXBlZ-183" value="&lt;b&gt;ResultW&lt;/b&gt;" style="edgeLabel;html=1;align=center;verticalAlign=middle;resizable=0;points=[];" parent="0S-3l-w-nzVZIsKJXBlZ-181" vertex="1" connectable="0">
          <mxGeometry x="-0.9649" y="1" relative="1" as="geometry">
            <mxPoint as="offset" />
          </mxGeometry>
        </mxCell>
        <mxCell id="zPqDqTLsyCB9AAuiYfrW-36" style="edgeStyle=orthogonalEdgeStyle;rounded=0;orthogonalLoop=1;jettySize=auto;html=1;exitX=0.25;exitY=0;exitDx=0;exitDy=0;entryX=0.5;entryY=1;entryDx=0;entryDy=0;strokeWidth=3;strokeColor=#00CC66;" parent="1" source="zPqDqTLsyCB9AAuiYfrW-1" target="0S-3l-w-nzVZIsKJXBlZ-1" edge="1">
          <mxGeometry relative="1" as="geometry">
            <Array as="points">
              <mxPoint x="300" y="440" />
            </Array>
          </mxGeometry>
        </mxCell>
        <mxCell id="zPqDqTLsyCB9AAuiYfrW-37" value="&lt;b&gt;EN&lt;/b&gt;" style="edgeLabel;html=1;align=center;verticalAlign=middle;resizable=0;points=[];" parent="zPqDqTLsyCB9AAuiYfrW-36" vertex="1" connectable="0">
          <mxGeometry x="0.8247" y="-2" relative="1" as="geometry">
            <mxPoint x="-2" y="-84" as="offset" />
          </mxGeometry>
        </mxCell>
        <mxCell id="zPqDqTLsyCB9AAuiYfrW-38" value="&lt;b&gt;StallF&lt;/b&gt;" style="edgeLabel;html=1;align=center;verticalAlign=middle;resizable=0;points=[];" parent="zPqDqTLsyCB9AAuiYfrW-36" vertex="1" connectable="0">
          <mxGeometry x="-0.0251" relative="1" as="geometry">
            <mxPoint as="offset" />
          </mxGeometry>
        </mxCell>
        <mxCell id="5N_nwnFfnxtBeg_xK4KU-44" style="edgeStyle=orthogonalEdgeStyle;rounded=0;orthogonalLoop=1;jettySize=auto;html=1;exitX=1;exitY=0.25;exitDx=0;exitDy=0;entryX=0;entryY=0.156;entryDx=0;entryDy=0;entryPerimeter=0;strokeWidth=3;strokeColor=#0000FF;" parent="1" source="5N_nwnFfnxtBeg_xK4KU-8" target="5N_nwnFfnxtBeg_xK4KU-32" edge="1">
          <mxGeometry relative="1" as="geometry">
            <Array as="points">
              <mxPoint x="1040" y="-550" />
            </Array>
          </mxGeometry>
        </mxCell>
        <mxCell id="5N_nwnFfnxtBeg_xK4KU-45" value="&lt;b&gt;ResultSrcE&lt;/b&gt;" style="edgeLabel;html=1;align=center;verticalAlign=middle;resizable=0;points=[];" parent="5N_nwnFfnxtBeg_xK4KU-44" vertex="1" connectable="0">
          <mxGeometry x="-0.5579" y="2" relative="1" as="geometry">
            <mxPoint x="-21" y="1" as="offset" />
          </mxGeometry>
        </mxCell>
        <mxCell id="0S-3l-w-nzVZIsKJXBlZ-117" style="edgeStyle=orthogonalEdgeStyle;rounded=0;orthogonalLoop=1;jettySize=auto;html=1;exitX=1.005;exitY=0.692;exitDx=0;exitDy=0;entryX=0.75;entryY=1;entryDx=0;entryDy=0;strokeWidth=3;exitPerimeter=0;" parent="1" source="0S-3l-w-nzVZIsKJXBlZ-77" target="0S-3l-w-nzVZIsKJXBlZ-114" edge="1">
          <mxGeometry relative="1" as="geometry">
            <Array as="points">
              <mxPoint x="1210" y="102" />
              <mxPoint x="1210" y="170" />
            </Array>
            <mxPoint x="1103" y="122.5" as="sourcePoint" />
          </mxGeometry>
        </mxCell>
        <mxCell id="0S-3l-w-nzVZIsKJXBlZ-118" value="&lt;b&gt;PCE&lt;/b&gt;" style="edgeLabel;html=1;align=center;verticalAlign=middle;resizable=0;points=[];" parent="0S-3l-w-nzVZIsKJXBlZ-117" vertex="1" connectable="0">
          <mxGeometry x="-0.759" y="-1" relative="1" as="geometry">
            <mxPoint x="-8" y="-1" as="offset" />
          </mxGeometry>
        </mxCell>
        <mxCell id="0S-3l-w-nzVZIsKJXBlZ-195" style="edgeStyle=orthogonalEdgeStyle;rounded=0;orthogonalLoop=1;jettySize=auto;html=1;exitX=1;exitY=1;exitDx=0;exitDy=0;entryX=-0.028;entryY=0.945;entryDx=0;entryDy=0;entryPerimeter=0;strokeWidth=3;" parent="1" source="0S-3l-w-nzVZIsKJXBlZ-77" target="0S-3l-w-nzVZIsKJXBlZ-123" edge="1">
          <mxGeometry relative="1" as="geometry">
            <Array as="points">
              <mxPoint x="1040" y="140" />
              <mxPoint x="1150" y="140" />
              <mxPoint x="1150" y="230" />
              <mxPoint x="1433" y="230" />
              <mxPoint x="1433" y="191" />
            </Array>
            <mxPoint x="1103" y="210" as="sourcePoint" />
          </mxGeometry>
        </mxCell>
        <mxCell id="0S-3l-w-nzVZIsKJXBlZ-196" value="&lt;b&gt;RdE&lt;/b&gt;" style="edgeLabel;html=1;align=center;verticalAlign=middle;resizable=0;points=[];" parent="0S-3l-w-nzVZIsKJXBlZ-195" vertex="1" connectable="0">
          <mxGeometry x="-0.7822" y="-2" relative="1" as="geometry">
            <mxPoint x="23" y="-2" as="offset" />
          </mxGeometry>
        </mxCell>
        <mxCell id="zPqDqTLsyCB9AAuiYfrW-48" style="edgeStyle=orthogonalEdgeStyle;rounded=0;orthogonalLoop=1;jettySize=auto;html=1;exitX=1;exitY=1;exitDx=0;exitDy=0;strokeWidth=3;strokeColor=#009999;" parent="1" source="0S-3l-w-nzVZIsKJXBlZ-77" edge="1">
          <mxGeometry relative="1" as="geometry">
            <mxPoint x="1100" y="430" as="targetPoint" />
            <Array as="points">
              <mxPoint x="1040" y="160" />
              <mxPoint x="1090" y="160" />
              <mxPoint x="1090" y="400" />
              <mxPoint x="1100" y="400" />
            </Array>
          </mxGeometry>
        </mxCell>
        <mxCell id="zPqDqTLsyCB9AAuiYfrW-49" value="&lt;b&gt;Rs1E&lt;/b&gt;" style="edgeLabel;html=1;align=center;verticalAlign=middle;resizable=0;points=[];" parent="zPqDqTLsyCB9AAuiYfrW-48" vertex="1" connectable="0">
          <mxGeometry x="-0.6846" y="1" relative="1" as="geometry">
            <mxPoint x="17" y="1" as="offset" />
          </mxGeometry>
        </mxCell>
        <mxCell id="zPqDqTLsyCB9AAuiYfrW-52" style="edgeStyle=orthogonalEdgeStyle;rounded=0;orthogonalLoop=1;jettySize=auto;html=1;exitX=1;exitY=1;exitDx=0;exitDy=0;strokeWidth=3;strokeColor=#009999;" parent="1" source="0S-3l-w-nzVZIsKJXBlZ-77" edge="1">
          <mxGeometry relative="1" as="geometry">
            <mxPoint x="1070" y="430" as="targetPoint" />
            <Array as="points">
              <mxPoint x="1040" y="190" />
              <mxPoint x="1080" y="190" />
              <mxPoint x="1080" y="400" />
              <mxPoint x="1070" y="400" />
            </Array>
          </mxGeometry>
        </mxCell>
        <mxCell id="zPqDqTLsyCB9AAuiYfrW-53" value="&lt;b&gt;Rs2E&lt;/b&gt;" style="edgeLabel;html=1;align=center;verticalAlign=middle;resizable=0;points=[];" parent="zPqDqTLsyCB9AAuiYfrW-52" vertex="1" connectable="0">
          <mxGeometry x="-0.6845" y="-1" relative="1" as="geometry">
            <mxPoint x="-9" y="-1" as="offset" />
          </mxGeometry>
        </mxCell>
        <mxCell id="0S-3l-w-nzVZIsKJXBlZ-77" value="&lt;b&gt;DFF&lt;/b&gt;" style="rounded=0;whiteSpace=wrap;html=1;sketch=1;curveFitting=1;jiggle=2;strokeWidth=3;fillColor=#fff2cc;strokeColor=#d6b656;" parent="1" vertex="1">
          <mxGeometry x="1000" y="-140" width="40" height="350" as="geometry" />
        </mxCell>
        <mxCell id="0S-3l-w-nzVZIsKJXBlZ-82" value="" style="endArrow=none;html=1;rounded=0;exitX=0.25;exitY=0;exitDx=0;exitDy=0;entryX=0.5;entryY=0.125;entryDx=0;entryDy=0;entryPerimeter=0;shadow=1;fillColor=#fff2cc;strokeColor=#d6b656;strokeWidth=3;" parent="1" edge="1">
          <mxGeometry width="50" height="50" relative="1" as="geometry">
            <mxPoint x="1010" y="-140" as="sourcePoint" />
            <mxPoint x="1020" y="-130" as="targetPoint" />
          </mxGeometry>
        </mxCell>
        <mxCell id="0S-3l-w-nzVZIsKJXBlZ-83" value="" style="endArrow=none;html=1;rounded=0;exitX=0.25;exitY=0;exitDx=0;exitDy=0;entryX=0.75;entryY=0;entryDx=0;entryDy=0;shadow=1;fillColor=#fff2cc;strokeColor=#d6b656;strokeWidth=3;" parent="1" edge="1">
          <mxGeometry width="50" height="50" relative="1" as="geometry">
            <mxPoint x="1020" y="-130" as="sourcePoint" />
            <mxPoint x="1030" y="-140" as="targetPoint" />
          </mxGeometry>
        </mxCell>
        <mxCell id="zPqDqTLsyCB9AAuiYfrW-30" style="edgeStyle=orthogonalEdgeStyle;rounded=0;orthogonalLoop=1;jettySize=auto;html=1;exitX=0.5;exitY=0;exitDx=0;exitDy=0;entryX=0.5;entryY=1;entryDx=0;entryDy=0;strokeWidth=3;strokeColor=#00CC66;" parent="1" source="zPqDqTLsyCB9AAuiYfrW-1" target="0S-3l-w-nzVZIsKJXBlZ-77" edge="1">
          <mxGeometry relative="1" as="geometry">
            <Array as="points">
              <mxPoint x="1020" y="440" />
            </Array>
          </mxGeometry>
        </mxCell>
        <mxCell id="zPqDqTLsyCB9AAuiYfrW-31" value="&lt;b&gt;FlushE&lt;/b&gt;" style="edgeLabel;html=1;align=center;verticalAlign=middle;resizable=0;points=[];" parent="zPqDqTLsyCB9AAuiYfrW-30" vertex="1" connectable="0">
          <mxGeometry x="-0.1908" relative="1" as="geometry">
            <mxPoint y="11" as="offset" />
          </mxGeometry>
        </mxCell>
        <mxCell id="zPqDqTLsyCB9AAuiYfrW-35" value="&lt;b&gt;CLR&lt;/b&gt;" style="edgeLabel;html=1;align=center;verticalAlign=middle;resizable=0;points=[];" parent="zPqDqTLsyCB9AAuiYfrW-30" vertex="1" connectable="0">
          <mxGeometry x="0.752" y="-1" relative="1" as="geometry">
            <mxPoint y="-47" as="offset" />
          </mxGeometry>
        </mxCell>
        <mxCell id="zPqDqTLsyCB9AAuiYfrW-50" style="edgeStyle=orthogonalEdgeStyle;rounded=0;orthogonalLoop=1;jettySize=auto;html=1;exitX=1;exitY=0.25;exitDx=0;exitDy=0;entryX=-0.066;entryY=0.938;entryDx=0;entryDy=0;entryPerimeter=0;strokeWidth=3;" parent="1" source="0S-3l-w-nzVZIsKJXBlZ-24" target="0S-3l-w-nzVZIsKJXBlZ-77" edge="1">
          <mxGeometry relative="1" as="geometry">
            <Array as="points">
              <mxPoint x="610" y="-70" />
              <mxPoint x="680" y="-70" />
              <mxPoint x="680" y="210" />
              <mxPoint x="970" y="210" />
              <mxPoint x="970" y="188" />
            </Array>
          </mxGeometry>
        </mxCell>
        <mxCell id="zPqDqTLsyCB9AAuiYfrW-51" value="&lt;b&gt;Rs2D&lt;/b&gt;" style="edgeLabel;html=1;align=center;verticalAlign=middle;resizable=0;points=[];" parent="zPqDqTLsyCB9AAuiYfrW-50" vertex="1" connectable="0">
          <mxGeometry x="0.1324" y="1" relative="1" as="geometry">
            <mxPoint x="195" as="offset" />
          </mxGeometry>
        </mxCell>
        <mxCell id="0S-3l-w-nzVZIsKJXBlZ-24" value="&lt;b&gt;DFF&lt;/b&gt;" style="rounded=0;whiteSpace=wrap;html=1;sketch=1;curveFitting=1;jiggle=2;strokeWidth=3;fillColor=#fff2cc;strokeColor=#d6b656;" parent="1" vertex="1">
          <mxGeometry x="570" y="-140" width="40" height="350" as="geometry" />
        </mxCell>
        <mxCell id="0S-3l-w-nzVZIsKJXBlZ-30" value="" style="endArrow=none;html=1;rounded=0;exitX=0.25;exitY=0;exitDx=0;exitDy=0;entryX=0.5;entryY=0.125;entryDx=0;entryDy=0;entryPerimeter=0;shadow=1;fillColor=#fff2cc;strokeColor=#d6b656;strokeWidth=3;" parent="1" edge="1">
          <mxGeometry width="50" height="50" relative="1" as="geometry">
            <mxPoint x="580" y="-140" as="sourcePoint" />
            <mxPoint x="590" y="-130" as="targetPoint" />
          </mxGeometry>
        </mxCell>
        <mxCell id="0S-3l-w-nzVZIsKJXBlZ-31" value="" style="endArrow=none;html=1;rounded=0;exitX=0.25;exitY=0;exitDx=0;exitDy=0;entryX=0.75;entryY=0;entryDx=0;entryDy=0;shadow=1;fillColor=#fff2cc;strokeColor=#d6b656;strokeWidth=3;" parent="1" edge="1">
          <mxGeometry width="50" height="50" relative="1" as="geometry">
            <mxPoint x="590" y="-130" as="sourcePoint" />
            <mxPoint x="600" y="-140" as="targetPoint" />
          </mxGeometry>
        </mxCell>
        <mxCell id="zPqDqTLsyCB9AAuiYfrW-32" style="edgeStyle=orthogonalEdgeStyle;rounded=0;orthogonalLoop=1;jettySize=auto;html=1;exitX=0.25;exitY=0;exitDx=0;exitDy=0;entryX=0.75;entryY=1;entryDx=0;entryDy=0;strokeWidth=3;strokeColor=#00CC66;" parent="1" source="zPqDqTLsyCB9AAuiYfrW-1" target="0S-3l-w-nzVZIsKJXBlZ-24" edge="1">
          <mxGeometry relative="1" as="geometry">
            <Array as="points">
              <mxPoint x="600" y="440" />
            </Array>
          </mxGeometry>
        </mxCell>
        <mxCell id="zPqDqTLsyCB9AAuiYfrW-33" value="&lt;b&gt;FlushD&lt;/b&gt;" style="edgeLabel;html=1;align=center;verticalAlign=middle;resizable=0;points=[];" parent="zPqDqTLsyCB9AAuiYfrW-32" vertex="1" connectable="0">
          <mxGeometry x="-0.0309" y="-2" relative="1" as="geometry">
            <mxPoint x="8" y="45" as="offset" />
          </mxGeometry>
        </mxCell>
        <mxCell id="zPqDqTLsyCB9AAuiYfrW-34" value="&lt;b&gt;CLR&lt;/b&gt;" style="edgeLabel;html=1;align=center;verticalAlign=middle;resizable=0;points=[];rotation=-90;" parent="zPqDqTLsyCB9AAuiYfrW-32" vertex="1" connectable="0">
          <mxGeometry x="0.8359" y="1" relative="1" as="geometry">
            <mxPoint x="1" y="-39" as="offset" />
          </mxGeometry>
        </mxCell>
        <mxCell id="zPqDqTLsyCB9AAuiYfrW-39" style="edgeStyle=orthogonalEdgeStyle;rounded=0;orthogonalLoop=1;jettySize=auto;html=1;exitX=0.25;exitY=0;exitDx=0;exitDy=0;entryX=0.25;entryY=1;entryDx=0;entryDy=0;strokeWidth=3;strokeColor=#00CC66;" parent="1" source="zPqDqTLsyCB9AAuiYfrW-1" target="0S-3l-w-nzVZIsKJXBlZ-24" edge="1">
          <mxGeometry relative="1" as="geometry">
            <Array as="points">
              <mxPoint x="580" y="440" />
            </Array>
          </mxGeometry>
        </mxCell>
        <mxCell id="zPqDqTLsyCB9AAuiYfrW-40" value="&lt;b&gt;EN&lt;/b&gt;" style="edgeLabel;html=1;align=center;verticalAlign=middle;resizable=0;points=[];rotation=-90;" parent="zPqDqTLsyCB9AAuiYfrW-39" vertex="1" connectable="0">
          <mxGeometry x="0.8358" relative="1" as="geometry">
            <mxPoint x="1" y="-38" as="offset" />
          </mxGeometry>
        </mxCell>
        <mxCell id="zPqDqTLsyCB9AAuiYfrW-41" value="&lt;b&gt;StallD&lt;/b&gt;" style="edgeLabel;html=1;align=center;verticalAlign=middle;resizable=0;points=[];" parent="zPqDqTLsyCB9AAuiYfrW-39" vertex="1" connectable="0">
          <mxGeometry x="-0.0542" relative="1" as="geometry">
            <mxPoint x="-10" y="12" as="offset" />
          </mxGeometry>
        </mxCell>
        <mxCell id="5N_nwnFfnxtBeg_xK4KU-8" value="&lt;b&gt;DFF&lt;/b&gt;" style="rounded=0;whiteSpace=wrap;html=1;fillColor=#dae8fc;strokeColor=#6c8ebf;sketch=1;curveFitting=1;jiggle=2;strokeWidth=3;" parent="1" vertex="1">
          <mxGeometry x="1000" y="-605" width="40" height="320" as="geometry" />
        </mxCell>
        <mxCell id="5N_nwnFfnxtBeg_xK4KU-30" value="" style="endArrow=none;html=1;rounded=0;exitX=0.25;exitY=0;exitDx=0;exitDy=0;entryX=0.5;entryY=0.125;entryDx=0;entryDy=0;entryPerimeter=0;shadow=1;fillColor=#fff2cc;strokeColor=#6C8EBF;strokeWidth=3;" parent="1" source="5N_nwnFfnxtBeg_xK4KU-8" edge="1">
          <mxGeometry width="50" height="50" relative="1" as="geometry">
            <mxPoint x="1010" y="-600" as="sourcePoint" />
            <mxPoint x="1020" y="-590" as="targetPoint" />
          </mxGeometry>
        </mxCell>
        <mxCell id="5N_nwnFfnxtBeg_xK4KU-31" value="" style="endArrow=none;html=1;rounded=0;exitX=0.25;exitY=0;exitDx=0;exitDy=0;entryX=0.75;entryY=0;entryDx=0;entryDy=0;shadow=1;fillColor=#fff2cc;strokeColor=#6C8EBF;strokeWidth=3;" parent="1" target="5N_nwnFfnxtBeg_xK4KU-8" edge="1">
          <mxGeometry width="50" height="50" relative="1" as="geometry">
            <mxPoint x="1020" y="-590" as="sourcePoint" />
            <mxPoint x="1030" y="-600" as="targetPoint" />
          </mxGeometry>
        </mxCell>
      </root>
    </mxGraphModel>
  </diagram>
</mxfile>
